<svg width="97" height="32" viewBox="0 0 97 32" fill="none" xmlns="http://www.w3.org/2000/svg">
<rect width="97" height="32" rx="2" fill="#7F8995" fill-opacity="0.2"/>
<g clip-path="url(#clip0_341_97)">
<path d="M15.7355 5.01495C15.6944 5.01682 15.5393 5.0299 15.3898 5.04112C13.5207 5.17943 11.6254 5.87098 10.0723 6.98121C9.55826 7.34755 9.15267 7.69146 8.70036 8.14377C6.10048 10.7455 5.02951 14.4687 5.84255 18.0853C6.17525 19.5694 6.88549 21.0628 7.8275 22.2627C9.30594 24.1486 11.332 25.4775 13.6048 26.0532C14.53 26.2887 15.2982 26.384 16.2682 26.384C17.2252 26.384 17.9298 26.298 18.8419 26.0756C20.1521 25.7541 21.3035 25.2252 22.4548 24.4196C23.5576 23.6458 24.5837 22.5618 25.3201 21.3936C26.2696 19.8834 26.8098 18.2162 26.9425 16.3864C26.9705 16.0013 26.9537 15.0481 26.9126 14.6556C26.8303 13.8762 26.621 12.8482 26.4995 12.6333C26.4509 12.5492 26.3144 12.4408 26.2135 12.4052C26.178 12.394 26.0995 12.3847 26.036 12.3847C25.7556 12.3847 25.5201 12.6183 25.5201 12.8931C25.5201 12.9585 25.55 13.1155 25.593 13.2856C25.9631 14.7248 25.993 16.306 25.6771 17.7489C25.2734 19.5974 24.3725 21.2272 23.0137 22.5636C22.3801 23.186 21.7689 23.6458 20.9783 24.0981C19.1335 25.1541 16.8401 25.5541 14.6888 25.1953C13.0553 24.9243 11.6367 24.2962 10.2891 23.2477C9.65545 22.7543 8.88353 21.9412 8.40504 21.2609C7.57892 20.0871 7.05932 18.8498 6.79017 17.4125C6.65373 16.6798 6.607 15.7079 6.67055 14.9173C6.76774 13.7173 7.06866 12.6034 7.57892 11.5473C7.81442 11.0558 7.96021 10.7997 8.24244 10.3754C8.81811 9.50445 9.58069 8.68954 10.4236 8.04284C11.4124 7.28213 12.5861 6.70459 13.773 6.39432C14.4141 6.22611 14.9262 6.142 15.5767 6.09527C17.9298 5.92706 20.2176 6.60366 22.081 8.02228C22.2193 8.12695 22.3651 8.24096 22.4044 8.27647L22.4754 8.33815L22.4473 8.41665C22.3034 8.82037 22.41 9.32315 22.7128 9.67454C22.8679 9.85397 23.1482 10.0222 23.3856 10.0783C23.5482 10.1175 23.8305 10.1175 23.9949 10.0783C24.4117 9.97919 24.8005 9.6222 24.9239 9.22596C25.0622 8.78299 24.9818 8.34563 24.6977 7.99051C24.3837 7.598 23.8435 7.42231 23.3445 7.55314L23.2361 7.58118L23.0828 7.45408C22.4604 6.93261 21.7072 6.4504 20.9147 6.06724C19.6288 5.44484 18.3373 5.11027 16.8663 5.02056C16.5841 5.00374 15.9168 5 15.7355 5.01495V5.01495Z" fill="#375170"/>
<path d="M14.629 11.1642C14.4309 11.6763 14.001 12.7978 13.6702 13.6557C13.3394 14.5136 12.6609 16.2761 12.1619 17.5713C11.6647 18.8666 11.2516 19.932 11.2479 19.9395C11.2423 19.9488 11.7675 19.9544 12.4123 19.9544H13.588L13.6571 19.7619C13.6964 19.6572 13.8347 19.2872 13.9637 18.9395L14.1992 18.3096H15.9636C17.3691 18.3096 17.728 18.304 17.7223 18.2853C17.7037 18.2349 17.4158 17.4125 17.2626 16.9732L17.0981 16.506L15.9299 16.4966L14.7636 16.4873L15.5225 14.3958C15.9785 13.1398 16.2869 12.3174 16.2925 12.3361C16.3 12.3529 16.6028 13.2146 16.9672 14.25C17.3317 15.2855 17.9336 16.9901 18.3036 18.0386L18.9746 19.9451L20.1447 19.9507C20.7876 19.9525 21.3147 19.9507 21.3147 19.9469C21.3147 19.9432 21.1633 19.5451 20.9764 19.0647C20.7895 18.5825 20.3895 17.5452 20.0867 16.7583C19.7839 15.9714 19.4438 15.0892 19.3297 14.7958C19.2176 14.5023 19.0213 13.994 18.8943 13.665C18.7672 13.336 18.4363 12.4744 18.156 11.7492C17.8756 11.024 17.6308 10.3867 17.6102 10.3325L17.5747 10.2353H14.986L14.629 11.1642Z" fill="#375170"/>
</g>
<path d="M41.5068 22H40.1445L39.0312 19.0557H34.5781L33.5308 22H32.1611L36.1895 11.4971H37.4639L41.5068 22ZM38.6284 17.9497L36.9805 13.4746C36.9268 13.3281 36.873 13.0938 36.8193 12.7715H36.79C36.7412 13.0693 36.6851 13.3037 36.6216 13.4746L34.9883 17.9497H38.6284ZM44.29 18.0303V22H43.0596V11.4971H45.9453C47.0684 11.4971 47.9375 11.7705 48.5527 12.3174C49.1729 12.8643 49.4829 13.6357 49.4829 14.6318C49.4829 15.6279 49.1387 16.4434 48.4502 17.0781C47.7666 17.7129 46.8413 18.0303 45.6743 18.0303H44.29ZM44.29 12.6104V16.917H45.5791C46.4287 16.917 47.0757 16.7241 47.52 16.3384C47.9692 15.9478 48.1938 15.3984 48.1938 14.6904C48.1938 13.3037 47.3735 12.6104 45.7329 12.6104H44.29ZM55.7012 22.1758C54.2119 22.1758 53.0181 21.6851 52.1196 20.7036C51.2261 19.7222 50.7793 18.4453 50.7793 16.873C50.7793 15.1836 51.2358 13.8359 52.1489 12.8301C53.062 11.8242 54.3047 11.3213 55.877 11.3213C57.3271 11.3213 58.4941 11.8096 59.3779 12.7861C60.2666 13.7627 60.7109 15.0396 60.7109 16.6167C60.7109 18.3306 60.2568 19.6855 59.3486 20.6816C58.4404 21.6777 57.2246 22.1758 55.7012 22.1758ZM55.7891 12.4346C54.6855 12.4346 53.7896 12.8325 53.1011 13.6284C52.4126 14.4243 52.0684 15.4692 52.0684 16.7632C52.0684 18.0571 52.4028 19.0996 53.0718 19.8906C53.7456 20.6768 54.6221 21.0698 55.7012 21.0698C56.8535 21.0698 57.7617 20.6938 58.4258 19.9419C59.0898 19.1899 59.4219 18.1377 59.4219 16.7852C59.4219 15.3984 59.0996 14.3267 58.4551 13.5698C57.8105 12.813 56.9219 12.4346 55.7891 12.4346ZM68.2256 22H62.7764V11.4971H64.0068V20.8867H68.2256V22ZM75.2861 22H69.8369V11.4971H71.0674V20.8867H75.2861V22ZM80.6182 22.1758C79.1289 22.1758 77.9351 21.6851 77.0366 20.7036C76.1431 19.7222 75.6963 18.4453 75.6963 16.873C75.6963 15.1836 76.1528 13.8359 77.0659 12.8301C77.979 11.8242 79.2217 11.3213 80.7939 11.3213C82.2441 11.3213 83.4111 11.8096 84.2949 12.7861C85.1836 13.7627 85.6279 15.0396 85.6279 16.6167C85.6279 18.3306 85.1738 19.6855 84.2656 20.6816C83.3574 21.6777 82.1416 22.1758 80.6182 22.1758ZM80.7061 12.4346C79.6025 12.4346 78.7065 12.8325 78.0181 13.6284C77.3296 14.4243 76.9854 15.4692 76.9854 16.7632C76.9854 18.0571 77.3198 19.0996 77.9888 19.8906C78.6626 20.6768 79.5391 21.0698 80.6182 21.0698C81.7705 21.0698 82.6787 20.6938 83.3428 19.9419C84.0068 19.1899 84.3389 18.1377 84.3389 16.7852C84.3389 15.3984 84.0166 14.3267 83.3721 13.5698C82.7275 12.813 81.8389 12.4346 80.7061 12.4346Z" fill="#2F809C"/>
<defs>
<clipPath id="clip0_341_97">
<rect width="22" height="21.384" fill="white" transform="translate(5 5)"/>
</clipPath>
</defs>
</svg>
