<svg width="124" height="32" viewBox="0 0 124 32" fill="none" xmlns="http://www.w3.org/2000/svg">
<rect width="124" height="32" rx="2" fill="#7F8995" fill-opacity="0.2"/>
<path d="M17.8457 13.9102C17.8457 13.0078 17.1895 12.5156 16.082 12.5156H14.0312V15.4277H15.7539C17.1074 15.4277 17.8457 14.8535 17.8457 13.9102ZM25.3926 13.377C24.9824 12.1055 24.9414 10.5469 24.9824 9.35742C25.0234 8.08594 24.0391 6.9375 22.7266 6.9375H9.23242C7.91992 6.9375 6.93555 8.12695 7.01758 9.35742C7.05859 10.5469 6.97656 12.1055 6.60742 13.377C6.19727 14.6484 5.54102 15.4688 4.47461 15.5508V16.7402C5.54102 16.8223 6.19727 17.6426 6.60742 18.9141C6.97656 20.1855 7.05859 21.7441 7.01758 22.9336C6.93555 24.1641 7.91992 25.3125 9.23242 25.3125H22.7266C24.0391 25.3125 25.0234 24.1641 24.9824 22.9336C24.9414 21.7441 24.9824 20.1855 25.3516 18.9141C25.7617 17.6426 26.418 16.8223 27.5254 16.7402V15.5508C26.418 15.4688 25.7617 14.6484 25.3926 13.377ZM16.4922 21.0469H12.4727V11.2441H16.4512C18.2559 11.2441 19.4043 12.2285 19.4043 13.7051C19.4043 14.7305 18.625 15.6738 17.5996 15.7969V15.8789C18.9941 16.002 19.8965 16.9453 19.8965 18.2578C19.8965 19.9805 18.625 21.0469 16.4922 21.0469ZM16.082 16.5762H14.0312V19.7754H16.1641C17.5586 19.7754 18.2969 19.2422 18.2969 18.1758C18.2969 17.1094 17.5586 16.5762 16.082 16.5762Z" fill="#8A13FC"/>
<path d="M33.377 22V11.4971H36.3652C37.2734 11.4971 37.9937 11.7192 38.5259 12.1636C39.0581 12.6079 39.3242 13.1865 39.3242 13.8994C39.3242 14.4951 39.1631 15.0127 38.8408 15.4521C38.5186 15.8916 38.0742 16.2041 37.5078 16.3896V16.4189C38.2158 16.502 38.7822 16.7705 39.207 17.2246C39.6318 17.6738 39.8442 18.2598 39.8442 18.9824C39.8442 19.8809 39.522 20.6084 38.8774 21.165C38.2329 21.7217 37.4199 22 36.4385 22H33.377ZM34.6074 12.6104V16.0015H35.8672C36.541 16.0015 37.0708 15.8403 37.4565 15.5181C37.8423 15.1909 38.0352 14.7319 38.0352 14.1411C38.0352 13.1206 37.3638 12.6104 36.021 12.6104H34.6074ZM34.6074 17.1074V20.8867H36.2773C37 20.8867 37.5591 20.7158 37.9546 20.374C38.355 20.0322 38.5552 19.5635 38.5552 18.9678C38.5552 17.7275 37.7104 17.1074 36.021 17.1074H34.6074ZM46.209 22.1758C44.7197 22.1758 43.5259 21.6851 42.6274 20.7036C41.7339 19.7222 41.2871 18.4453 41.2871 16.873C41.2871 15.1836 41.7437 13.8359 42.6567 12.8301C43.5698 11.8242 44.8125 11.3213 46.3848 11.3213C47.835 11.3213 49.002 11.8096 49.8857 12.7861C50.7744 13.7627 51.2188 15.0396 51.2188 16.6167C51.2188 18.3306 50.7646 19.6855 49.8564 20.6816C48.9482 21.6777 47.7324 22.1758 46.209 22.1758ZM46.2969 12.4346C45.1934 12.4346 44.2974 12.8325 43.6089 13.6284C42.9204 14.4243 42.5762 15.4692 42.5762 16.7632C42.5762 18.0571 42.9106 19.0996 43.5796 19.8906C44.2534 20.6768 45.1299 21.0698 46.209 21.0698C47.3613 21.0698 48.2695 20.6938 48.9336 19.9419C49.5977 19.1899 49.9297 18.1377 49.9297 16.7852C49.9297 15.3984 49.6074 14.3267 48.9629 13.5698C48.3184 12.813 47.4297 12.4346 46.2969 12.4346ZM57.5176 22.1758C56.0283 22.1758 54.8345 21.6851 53.936 20.7036C53.0425 19.7222 52.5957 18.4453 52.5957 16.873C52.5957 15.1836 53.0522 13.8359 53.9653 12.8301C54.8784 11.8242 56.1211 11.3213 57.6934 11.3213C59.1436 11.3213 60.3105 11.8096 61.1943 12.7861C62.083 13.7627 62.5273 15.0396 62.5273 16.6167C62.5273 18.3306 62.0732 19.6855 61.165 20.6816C60.2568 21.6777 59.041 22.1758 57.5176 22.1758ZM57.6055 12.4346C56.502 12.4346 55.606 12.8325 54.9175 13.6284C54.229 14.4243 53.8848 15.4692 53.8848 16.7632C53.8848 18.0571 54.2192 19.0996 54.8882 19.8906C55.562 20.6768 56.4385 21.0698 57.5176 21.0698C58.6699 21.0698 59.5781 20.6938 60.2422 19.9419C60.9062 19.1899 61.2383 18.1377 61.2383 16.7852C61.2383 15.3984 60.916 14.3267 60.2715 13.5698C59.627 12.813 58.7383 12.4346 57.6055 12.4346ZM70.1299 12.6104H67.0977V22H65.8672V12.6104H62.8423V11.4971H70.1299V12.6104ZM71.0015 21.5752V20.125C71.1675 20.2715 71.3652 20.4033 71.5947 20.5205C71.8291 20.6377 72.0732 20.7378 72.3271 20.8208C72.5859 20.8989 72.8447 20.96 73.1035 21.0039C73.3623 21.0479 73.6016 21.0698 73.8213 21.0698C74.5781 21.0698 75.1421 20.9307 75.5132 20.6523C75.8892 20.3691 76.0771 19.9639 76.0771 19.4365C76.0771 19.1533 76.0137 18.9067 75.8867 18.6968C75.7646 18.4868 75.5938 18.2964 75.374 18.1255C75.1543 17.9497 74.8931 17.7837 74.5903 17.6274C74.2925 17.4663 73.9702 17.2979 73.6235 17.1221C73.2573 16.9365 72.9155 16.7485 72.5981 16.5581C72.2808 16.3677 72.0049 16.1577 71.7705 15.9282C71.5361 15.6987 71.3506 15.4399 71.2139 15.1519C71.082 14.8589 71.0161 14.5171 71.0161 14.1265C71.0161 13.6479 71.1211 13.2329 71.3311 12.8813C71.541 12.5249 71.8169 12.2319 72.1587 12.0024C72.5005 11.7729 72.8887 11.6021 73.3232 11.4897C73.7627 11.3774 74.2095 11.3213 74.6636 11.3213C75.6987 11.3213 76.4531 11.4458 76.9268 11.6948V13.0791C76.3066 12.6494 75.5107 12.4346 74.5391 12.4346C74.2705 12.4346 74.002 12.4639 73.7334 12.5225C73.4648 12.5762 73.2256 12.6665 73.0156 12.7935C72.8057 12.9204 72.6348 13.084 72.5029 13.2842C72.3711 13.4844 72.3052 13.7285 72.3052 14.0166C72.3052 14.2852 72.354 14.5171 72.4517 14.7124C72.5542 14.9077 72.7031 15.0859 72.8984 15.2471C73.0938 15.4082 73.3306 15.5645 73.6089 15.7158C73.8921 15.8672 74.2168 16.0332 74.583 16.2139C74.959 16.3994 75.3154 16.5947 75.6523 16.7998C75.9893 17.0049 76.2847 17.2319 76.5386 17.481C76.7925 17.73 76.9927 18.0059 77.1392 18.3086C77.2905 18.6113 77.3662 18.958 77.3662 19.3486C77.3662 19.8662 77.2637 20.3057 77.0586 20.667C76.8584 21.0234 76.585 21.314 76.2383 21.5386C75.8965 21.7632 75.501 21.9243 75.0518 22.022C74.6025 22.1245 74.1289 22.1758 73.6309 22.1758C73.4648 22.1758 73.2598 22.1611 73.0156 22.1318C72.7715 22.1074 72.5225 22.0684 72.2686 22.0146C72.0146 21.9658 71.7729 21.9048 71.5435 21.8315C71.3188 21.7534 71.1382 21.668 71.0015 21.5752ZM85.6719 12.6104H82.6396V22H81.4092V12.6104H78.3843V11.4971H85.6719V12.6104ZM94.8564 22H93.3916L91.6338 19.0557C91.4727 18.7822 91.3164 18.5503 91.165 18.3599C91.0137 18.1646 90.8574 18.0059 90.6963 17.8838C90.54 17.7617 90.3691 17.6738 90.1836 17.6201C90.0029 17.5615 89.7979 17.5322 89.5684 17.5322H88.5576V22H87.3271V11.4971H90.4619C90.9209 11.4971 91.3433 11.5557 91.729 11.6729C92.1196 11.7852 92.4565 11.9585 92.7397 12.1929C93.0278 12.4272 93.2524 12.7202 93.4136 13.0718C93.5747 13.4185 93.6553 13.8262 93.6553 14.2949C93.6553 14.6611 93.5991 14.998 93.4868 15.3057C93.3794 15.6084 93.2231 15.8794 93.0181 16.1187C92.8179 16.3579 92.5737 16.563 92.2856 16.7339C92.0024 16.8999 91.6826 17.0293 91.3262 17.1221V17.1514C91.502 17.2295 91.6533 17.3198 91.7803 17.4224C91.9121 17.52 92.0366 17.6372 92.1538 17.7739C92.271 17.9106 92.3857 18.0669 92.498 18.2427C92.6152 18.4136 92.7446 18.6138 92.8862 18.8433L94.8564 22ZM88.5576 12.6104V16.4189H90.2275C90.5352 16.4189 90.8184 16.3726 91.0771 16.2798C91.3408 16.187 91.5679 16.0552 91.7583 15.8843C91.9487 15.7085 92.0977 15.4961 92.2051 15.2471C92.3125 14.9932 92.3662 14.71 92.3662 14.3975C92.3662 13.8359 92.1831 13.3989 91.8169 13.0864C91.4556 12.769 90.9307 12.6104 90.2422 12.6104H88.5576ZM104.437 22H103.074L101.961 19.0557H97.5078L96.4604 22H95.0908L99.1191 11.4971H100.394L104.437 22ZM101.558 17.9497L99.9102 13.4746C99.8564 13.3281 99.8027 13.0938 99.749 12.7715H99.7197C99.6709 13.0693 99.6147 13.3037 99.5513 13.4746L97.918 17.9497H101.558ZM107.22 18.0303V22H105.989V11.4971H108.875C109.998 11.4971 110.867 11.7705 111.482 12.3174C112.103 12.8643 112.413 13.6357 112.413 14.6318C112.413 15.6279 112.068 16.4434 111.38 17.0781C110.696 17.7129 109.771 18.0303 108.604 18.0303H107.22ZM107.22 12.6104V16.917H108.509C109.358 16.917 110.005 16.7241 110.45 16.3384C110.899 15.9478 111.124 15.3984 111.124 14.6904C111.124 13.3037 110.303 12.6104 108.663 12.6104H107.22Z" fill="#2F809C"/>
</svg>
