<svg width="70" height="32" viewBox="0 0 70 32" fill="none" xmlns="http://www.w3.org/2000/svg">
<rect width="70" height="32" rx="2" fill="#7F8995" fill-opacity="0.2"/>
<path d="M25.1875 6.9375H8.45312L7.79688 10.3008H21.4551L21.0449 12.4746H7.3457L6.68945 15.8379H20.3477L19.6094 19.8164L14.1133 21.6621L9.31445 19.8164L9.64258 18.1758H6.2793L5.5 22.0312L13.375 25.3125L22.5625 22.0312L25.1875 6.9375Z" fill="#146CAD"/>
<path d="M40.5254 21.5605C39.749 21.9707 38.7822 22.1758 37.625 22.1758C36.1309 22.1758 34.9346 21.6948 34.0361 20.7329C33.1377 19.771 32.6885 18.5088 32.6885 16.9463C32.6885 15.2666 33.1938 13.9092 34.2046 12.874C35.2153 11.8389 36.4971 11.3213 38.0498 11.3213C39.0459 11.3213 39.8711 11.4653 40.5254 11.7534V13.0645C39.7734 12.6445 38.9434 12.4346 38.0352 12.4346C36.8291 12.4346 35.8501 12.8374 35.0981 13.6431C34.3511 14.4487 33.9775 15.5254 33.9775 16.873C33.9775 18.1523 34.3267 19.1729 35.0249 19.9346C35.728 20.6914 36.6484 21.0698 37.7861 21.0698C38.8408 21.0698 39.7539 20.8354 40.5254 20.3667V21.5605ZM42.1733 21.5752V20.125C42.3394 20.2715 42.5371 20.4033 42.7666 20.5205C43.001 20.6377 43.2451 20.7378 43.499 20.8208C43.7578 20.8989 44.0166 20.96 44.2754 21.0039C44.5342 21.0479 44.7734 21.0698 44.9932 21.0698C45.75 21.0698 46.314 20.9307 46.6851 20.6523C47.061 20.3691 47.249 19.9639 47.249 19.4365C47.249 19.1533 47.1855 18.9067 47.0586 18.6968C46.9365 18.4868 46.7656 18.2964 46.5459 18.1255C46.3262 17.9497 46.0649 17.7837 45.7622 17.6274C45.4644 17.4663 45.1421 17.2979 44.7954 17.1221C44.4292 16.9365 44.0874 16.7485 43.77 16.5581C43.4526 16.3677 43.1768 16.1577 42.9424 15.9282C42.708 15.6987 42.5225 15.4399 42.3857 15.1519C42.2539 14.8589 42.188 14.5171 42.188 14.1265C42.188 13.6479 42.293 13.2329 42.5029 12.8813C42.7129 12.5249 42.9888 12.2319 43.3306 12.0024C43.6724 11.7729 44.0605 11.6021 44.4951 11.4897C44.9346 11.3774 45.3813 11.3213 45.8354 11.3213C46.8706 11.3213 47.625 11.4458 48.0986 11.6948V13.0791C47.4785 12.6494 46.6826 12.4346 45.7109 12.4346C45.4424 12.4346 45.1738 12.4639 44.9053 12.5225C44.6367 12.5762 44.3975 12.6665 44.1875 12.7935C43.9775 12.9204 43.8066 13.084 43.6748 13.2842C43.543 13.4844 43.4771 13.7285 43.4771 14.0166C43.4771 14.2852 43.5259 14.5171 43.6235 14.7124C43.7261 14.9077 43.875 15.0859 44.0703 15.2471C44.2656 15.4082 44.5024 15.5645 44.7808 15.7158C45.064 15.8672 45.3887 16.0332 45.7549 16.2139C46.1309 16.3994 46.4873 16.5947 46.8242 16.7998C47.1611 17.0049 47.4565 17.2319 47.7104 17.481C47.9644 17.73 48.1646 18.0059 48.311 18.3086C48.4624 18.6113 48.5381 18.958 48.5381 19.3486C48.5381 19.8662 48.4355 20.3057 48.2305 20.667C48.0303 21.0234 47.7568 21.314 47.4102 21.5386C47.0684 21.7632 46.6729 21.9243 46.2236 22.022C45.7744 22.1245 45.3008 22.1758 44.8027 22.1758C44.6367 22.1758 44.4316 22.1611 44.1875 22.1318C43.9434 22.1074 43.6943 22.0684 43.4404 22.0146C43.1865 21.9658 42.9448 21.9048 42.7153 21.8315C42.4907 21.7534 42.3101 21.668 42.1733 21.5752ZM50.1421 21.5752V20.125C50.3081 20.2715 50.5059 20.4033 50.7354 20.5205C50.9697 20.6377 51.2139 20.7378 51.4678 20.8208C51.7266 20.8989 51.9854 20.96 52.2441 21.0039C52.5029 21.0479 52.7422 21.0698 52.9619 21.0698C53.7188 21.0698 54.2827 20.9307 54.6538 20.6523C55.0298 20.3691 55.2178 19.9639 55.2178 19.4365C55.2178 19.1533 55.1543 18.9067 55.0273 18.6968C54.9053 18.4868 54.7344 18.2964 54.5146 18.1255C54.2949 17.9497 54.0337 17.7837 53.731 17.6274C53.4331 17.4663 53.1108 17.2979 52.7642 17.1221C52.3979 16.9365 52.0562 16.7485 51.7388 16.5581C51.4214 16.3677 51.1455 16.1577 50.9111 15.9282C50.6768 15.6987 50.4912 15.4399 50.3545 15.1519C50.2227 14.8589 50.1567 14.5171 50.1567 14.1265C50.1567 13.6479 50.2617 13.2329 50.4717 12.8813C50.6816 12.5249 50.9575 12.2319 51.2993 12.0024C51.6411 11.7729 52.0293 11.6021 52.4639 11.4897C52.9033 11.3774 53.3501 11.3213 53.8042 11.3213C54.8394 11.3213 55.5938 11.4458 56.0674 11.6948V13.0791C55.4473 12.6494 54.6514 12.4346 53.6797 12.4346C53.4111 12.4346 53.1426 12.4639 52.874 12.5225C52.6055 12.5762 52.3662 12.6665 52.1562 12.7935C51.9463 12.9204 51.7754 13.084 51.6436 13.2842C51.5117 13.4844 51.4458 13.7285 51.4458 14.0166C51.4458 14.2852 51.4946 14.5171 51.5923 14.7124C51.6948 14.9077 51.8438 15.0859 52.0391 15.2471C52.2344 15.4082 52.4712 15.5645 52.7495 15.7158C53.0327 15.8672 53.3574 16.0332 53.7236 16.2139C54.0996 16.3994 54.4561 16.5947 54.793 16.7998C55.1299 17.0049 55.4253 17.2319 55.6792 17.481C55.9331 17.73 56.1333 18.0059 56.2798 18.3086C56.4312 18.6113 56.5068 18.958 56.5068 19.3486C56.5068 19.8662 56.4043 20.3057 56.1992 20.667C55.999 21.0234 55.7256 21.314 55.3789 21.5386C55.0371 21.7632 54.6416 21.9243 54.1924 22.022C53.7432 22.1245 53.2695 22.1758 52.7715 22.1758C52.6055 22.1758 52.4004 22.1611 52.1562 22.1318C51.9121 22.1074 51.6631 22.0684 51.4092 22.0146C51.1553 21.9658 50.9136 21.9048 50.6841 21.8315C50.4595 21.7534 50.2788 21.668 50.1421 21.5752Z" fill="#2F809C"/>
</svg>
