<svg width="89" height="32" viewBox="0 0 89 32" fill="none" xmlns="http://www.w3.org/2000/svg">
<rect width="89" height="32" rx="2" fill="#7F8995" fill-opacity="0.2"/>
<path d="M15.8267 16C15.8267 14.181 17.301 12.7067 19.12 12.7067C20.939 12.7067 22.4133 14.181 22.4133 16C22.4133 17.819 20.939 19.2933 19.12 19.2933C17.301 19.2933 15.8267 17.819 15.8267 16Z" fill="#1ABCFE"/>
<path d="M9.23999 22.5867C9.23999 20.7677 10.7144 19.2933 12.5333 19.2933H15.8267V22.5867C15.8267 24.4056 14.3523 25.88 12.5333 25.88C10.7144 25.88 9.23999 24.4056 9.23999 22.5867Z" fill="#0ACF83"/>
<path d="M15.8267 6.12V12.7067H19.12C20.939 12.7067 22.4133 11.2323 22.4133 9.41333C22.4133 7.59437 20.939 6.12 19.12 6.12H15.8267Z" fill="#FF7262"/>
<path d="M9.23999 9.41333C9.23999 11.2323 10.7144 12.7067 12.5333 12.7067H15.8267V6.12H12.5333C10.7144 6.12 9.23999 7.59437 9.23999 9.41333Z" fill="#F24E1E"/>
<path d="M9.23999 16C9.23999 17.819 10.7144 19.2933 12.5333 19.2933H15.8267V12.7067H12.5333C10.7144 12.7067 9.23999 14.181 9.23999 16Z" fill="#A259FF"/>
<path d="M38.709 12.6104H34.6074V16.2432H38.4014V17.3491H34.6074V22H33.377V11.4971H38.709V12.6104ZM41.9316 22H40.7012V11.4971H41.9316V22ZM52.5518 21.2822C51.4971 21.8779 50.3252 22.1758 49.0361 22.1758C47.5371 22.1758 46.3237 21.6924 45.396 20.7256C44.4731 19.7588 44.0117 18.4795 44.0117 16.8877C44.0117 15.2617 44.5244 13.9287 45.5498 12.8887C46.5801 11.8438 47.8838 11.3213 49.4609 11.3213C50.6035 11.3213 51.563 11.5068 52.3394 11.8779V13.2402C51.4897 12.7031 50.4839 12.4346 49.3218 12.4346C48.145 12.4346 47.1807 12.8398 46.4287 13.6504C45.6768 14.4609 45.3008 15.5107 45.3008 16.7998C45.3008 18.1279 45.6499 19.1729 46.3481 19.9346C47.0464 20.6914 47.9937 21.0698 49.1899 21.0698C50.0103 21.0698 50.7207 20.9062 51.3213 20.5791V17.6348H49.0215V16.5215H52.5518V21.2822ZM65.7061 22H64.4829V14.9541C64.4829 14.3975 64.5171 13.7163 64.5854 12.9106H64.5562C64.439 13.3843 64.334 13.7236 64.2412 13.9287L60.6523 22H60.0518L56.4702 13.9873C56.3677 13.7529 56.2627 13.394 56.1553 12.9106H56.126C56.165 13.3306 56.1846 14.0166 56.1846 14.9688V22H54.998V11.4971H56.624L59.8467 18.8213C60.0957 19.3828 60.2568 19.8027 60.3301 20.0811H60.374C60.584 19.5049 60.7524 19.0752 60.8794 18.792L64.168 11.4971H65.7061V22ZM76.6045 22H75.2422L74.1289 19.0557H69.6758L68.6284 22H67.2588L71.2871 11.4971H72.5615L76.6045 22ZM73.7261 17.9497L72.0781 13.4746C72.0244 13.3281 71.9707 13.0938 71.917 12.7715H71.8877C71.8389 13.0693 71.7827 13.3037 71.7192 13.4746L70.0859 17.9497H73.7261Z" fill="#2F809C"/>
</svg>
