<svg width="157" height="32" viewBox="0 0 157 32" fill="none" xmlns="http://www.w3.org/2000/svg">
<rect width="157" height="32" rx="2" fill="#7F8995" fill-opacity="0.2"/>
<g clip-path="url(#clip0_343_110)">
<path d="M25 7V16L20.5 20.5L16 25L11.5 20.5L16 16V16.0413V16L25 7Z" fill="#59529D"/>
<path d="M25 16V25L20.5 20.5L25 16Z" fill="#5271B4"/>
<path d="M16 16L11.5 20.5L6.99997 25V6.99997L11.5 11.5L16 16Z" fill="#BB4B96"/>
</g>
<path d="M38.709 12.6104H34.6074V16.2432H38.4014V17.3491H34.6074V22H33.377V11.4971H38.709V12.6104ZM48.2305 22H46.7656L45.0078 19.0557C44.8467 18.7822 44.6904 18.5503 44.5391 18.3599C44.3877 18.1646 44.2314 18.0059 44.0703 17.8838C43.9141 17.7617 43.7432 17.6738 43.5576 17.6201C43.377 17.5615 43.1719 17.5322 42.9424 17.5322H41.9316V22H40.7012V11.4971H43.8359C44.2949 11.4971 44.7173 11.5557 45.103 11.6729C45.4937 11.7852 45.8306 11.9585 46.1138 12.1929C46.4019 12.4272 46.6265 12.7202 46.7876 13.0718C46.9487 13.4185 47.0293 13.8262 47.0293 14.2949C47.0293 14.6611 46.9731 14.998 46.8608 15.3057C46.7534 15.6084 46.5972 15.8794 46.3921 16.1187C46.1919 16.3579 45.9478 16.563 45.6597 16.7339C45.3765 16.8999 45.0566 17.0293 44.7002 17.1221V17.1514C44.876 17.2295 45.0273 17.3198 45.1543 17.4224C45.2861 17.52 45.4106 17.6372 45.5278 17.7739C45.645 17.9106 45.7598 18.0669 45.8721 18.2427C45.9893 18.4136 46.1187 18.6138 46.2603 18.8433L48.2305 22ZM41.9316 12.6104V16.4189H43.6016C43.9092 16.4189 44.1924 16.3726 44.4512 16.2798C44.7148 16.187 44.9419 16.0552 45.1323 15.8843C45.3228 15.7085 45.4717 15.4961 45.5791 15.2471C45.6865 14.9932 45.7402 14.71 45.7402 14.3975C45.7402 13.8359 45.5571 13.3989 45.1909 13.0864C44.8296 12.769 44.3047 12.6104 43.6162 12.6104H41.9316ZM57.8105 22H56.4482L55.335 19.0557H50.8818L49.8345 22H48.4648L52.4932 11.4971H53.7676L57.8105 22ZM54.9321 17.9497L53.2842 13.4746C53.2305 13.3281 53.1768 13.0938 53.123 12.7715H53.0938C53.0449 13.0693 52.9888 13.3037 52.9253 13.4746L51.292 17.9497H54.9321ZM70.0713 22H68.8481V14.9541C68.8481 14.3975 68.8823 13.7163 68.9507 12.9106H68.9214C68.8042 13.3843 68.6992 13.7236 68.6064 13.9287L65.0176 22H64.417L60.8354 13.9873C60.7329 13.7529 60.6279 13.394 60.5205 12.9106H60.4912C60.5303 13.3306 60.5498 14.0166 60.5498 14.9688V22H59.3633V11.4971H60.9893L64.2119 18.8213C64.4609 19.3828 64.6221 19.8027 64.6953 20.0811H64.7393C64.9492 19.5049 65.1177 19.0752 65.2446 18.792L68.5332 11.4971H70.0713V22ZM78.4062 22H72.8398V11.4971H78.1719V12.6104H74.0703V16.104H77.8643V17.21H74.0703V20.8867H78.4062V22ZM87.957 22H86.4922L84.7344 19.0557C84.5732 18.7822 84.417 18.5503 84.2656 18.3599C84.1143 18.1646 83.958 18.0059 83.7969 17.8838C83.6406 17.7617 83.4697 17.6738 83.2842 17.6201C83.1035 17.5615 82.8984 17.5322 82.6689 17.5322H81.6582V22H80.4277V11.4971H83.5625C84.0215 11.4971 84.4438 11.5557 84.8296 11.6729C85.2202 11.7852 85.5571 11.9585 85.8403 12.1929C86.1284 12.4272 86.353 12.7202 86.5142 13.0718C86.6753 13.4185 86.7559 13.8262 86.7559 14.2949C86.7559 14.6611 86.6997 14.998 86.5874 15.3057C86.48 15.6084 86.3237 15.8794 86.1187 16.1187C85.9185 16.3579 85.6743 16.563 85.3862 16.7339C85.103 16.8999 84.7832 17.0293 84.4268 17.1221V17.1514C84.6025 17.2295 84.7539 17.3198 84.8809 17.4224C85.0127 17.52 85.1372 17.6372 85.2544 17.7739C85.3716 17.9106 85.4863 18.0669 85.5986 18.2427C85.7158 18.4136 85.8452 18.6138 85.9868 18.8433L87.957 22ZM81.6582 12.6104V16.4189H83.3281C83.6357 16.4189 83.9189 16.3726 84.1777 16.2798C84.4414 16.187 84.6685 16.0552 84.8589 15.8843C85.0493 15.7085 85.1982 15.4961 85.3057 15.2471C85.4131 14.9932 85.4668 14.71 85.4668 14.3975C85.4668 13.8359 85.2837 13.3989 84.9175 13.0864C84.5562 12.769 84.0312 12.6104 83.3428 12.6104H81.6582ZM104.231 22H103.008V14.9541C103.008 14.3975 103.042 13.7163 103.111 12.9106H103.082C102.964 13.3843 102.859 13.7236 102.767 13.9287L99.1777 22H98.5771L94.9956 13.9873C94.8931 13.7529 94.7881 13.394 94.6807 12.9106H94.6514C94.6904 13.3306 94.71 14.0166 94.71 14.9688V22H93.5234V11.4971H95.1494L98.3721 18.8213C98.6211 19.3828 98.7822 19.8027 98.8555 20.0811H98.8994C99.1094 19.5049 99.2778 19.0752 99.4048 18.792L102.693 11.4971H104.231V22ZM111.233 22.1758C109.744 22.1758 108.55 21.6851 107.652 20.7036C106.758 19.7222 106.312 18.4453 106.312 16.873C106.312 15.1836 106.768 13.8359 107.681 12.8301C108.594 11.8242 109.837 11.3213 111.409 11.3213C112.859 11.3213 114.026 11.8096 114.91 12.7861C115.799 13.7627 116.243 15.0396 116.243 16.6167C116.243 18.3306 115.789 19.6855 114.881 20.6816C113.973 21.6777 112.757 22.1758 111.233 22.1758ZM111.321 12.4346C110.218 12.4346 109.322 12.8325 108.633 13.6284C107.945 14.4243 107.601 15.4692 107.601 16.7632C107.601 18.0571 107.935 19.0996 108.604 19.8906C109.278 20.6768 110.154 21.0698 111.233 21.0698C112.386 21.0698 113.294 20.6938 113.958 19.9419C114.622 19.1899 114.954 18.1377 114.954 16.7852C114.954 15.3984 114.632 14.3267 113.987 13.5698C113.343 12.813 112.454 12.4346 111.321 12.4346ZM123.846 12.6104H120.813V22H119.583V12.6104H116.558V11.4971H123.846V12.6104ZM126.731 22H125.501V11.4971H126.731V22ZM133.733 22.1758C132.244 22.1758 131.05 21.6851 130.152 20.7036C129.258 19.7222 128.812 18.4453 128.812 16.873C128.812 15.1836 129.268 13.8359 130.181 12.8301C131.094 11.8242 132.337 11.3213 133.909 11.3213C135.359 11.3213 136.526 11.8096 137.41 12.7861C138.299 13.7627 138.743 15.0396 138.743 16.6167C138.743 18.3306 138.289 19.6855 137.381 20.6816C136.473 21.6777 135.257 22.1758 133.733 22.1758ZM133.821 12.4346C132.718 12.4346 131.822 12.8325 131.133 13.6284C130.445 14.4243 130.101 15.4692 130.101 16.7632C130.101 18.0571 130.435 19.0996 131.104 19.8906C131.778 20.6768 132.654 21.0698 133.733 21.0698C134.886 21.0698 135.794 20.6938 136.458 19.9419C137.122 19.1899 137.454 18.1377 137.454 16.7852C137.454 15.3984 137.132 14.3267 136.487 13.5698C135.843 12.813 134.954 12.4346 133.821 12.4346ZM149.275 22H147.767L142.361 13.6284C142.225 13.4185 142.112 13.1987 142.024 12.9692H141.98C142.02 13.1938 142.039 13.6748 142.039 14.4121V22H140.809V11.4971H142.405L147.664 19.7368C147.884 20.0786 148.025 20.313 148.089 20.4399H148.118C148.069 20.1372 148.045 19.6221 148.045 18.8945V11.4971H149.275V22Z" fill="#2F809C"/>
<defs>
<clipPath id="clip0_343_110">
<rect width="18" height="18" fill="white" transform="translate(7 7)"/>
</clipPath>
</defs>
</svg>
