<svg width="97" height="32" viewBox="0 0 97 32" fill="none" xmlns="http://www.w3.org/2000/svg">
<rect width="97" height="32" rx="2" fill="#7F8995" fill-opacity="0.2"/>
<path d="M6.77484 21.3011L7.58245 21.7674L16.5796 6.18429L15.772 5.718L6.77484 21.3011Z" fill="#E535AB"/>
<path d="M24.5843 20.0562H6.58989V20.9888H24.5843V20.0562Z" fill="#E535AB"/>
<path d="M6.94596 20.5801L15.9465 25.7767L16.4128 24.9691L7.41225 19.7725L6.94596 20.5801Z" fill="#E535AB"/>
<path d="M14.7647 7.03631L23.7653 12.2329L24.2316 11.4253L15.231 6.22869L14.7647 7.03631Z" fill="#E535AB"/>
<path d="M6.94845 11.4218L7.41475 12.2294L16.4153 7.03277L15.949 6.22515L6.94845 11.4218Z" fill="#E535AB"/>
<path d="M14.6022 6.18448L23.5993 21.7676L24.407 21.3013L15.4098 5.71818L14.6022 6.18448Z" fill="#E535AB"/>
<path d="M8.23596 10.8034H7.30338V21.1966H8.23596V10.8034Z" fill="#E535AB"/>
<path d="M23.8764 10.8034H22.9438V21.1966H23.8764V10.8034Z" fill="#E535AB"/>
<path d="M15.3805 24.6765L15.7878 25.382L23.6158 20.8623L23.2085 20.1568L15.3805 24.6765Z" fill="#E535AB"/>
<path d="M25.1124 21.5C24.573 22.4382 23.3708 22.7584 22.4326 22.2191C21.4944 21.6798 21.1742 20.4775 21.7135 19.5393C22.2528 18.6011 23.4551 18.2809 24.3933 18.8202C25.3371 19.3652 25.6573 20.5618 25.1124 21.5Z" fill="#E535AB"/>
<path d="M9.46068 12.4607C8.92135 13.3989 7.7191 13.7191 6.7809 13.1798C5.8427 12.6405 5.52247 11.4382 6.0618 10.5C6.60113 9.5618 7.80337 9.24158 8.74158 9.78091C9.67978 10.3258 10 11.5225 9.46068 12.4607Z" fill="#E535AB"/>
<path d="M6.06743 21.5C5.5281 20.5618 5.84833 19.3652 6.78653 18.8202C7.72473 18.2809 8.92136 18.6011 9.4663 19.5393C10.0056 20.4775 9.68541 21.6741 8.7472 22.2191C7.80338 22.7584 6.60675 22.4382 6.06743 21.5Z" fill="#E535AB"/>
<path d="M21.7191 12.4607C21.1798 11.5225 21.5 10.3258 22.4382 9.78091C23.3764 9.24158 24.573 9.5618 25.118 10.5C25.6573 11.4382 25.3371 12.6348 24.3989 13.1798C23.4607 13.7191 22.2584 13.3989 21.7191 12.4607Z" fill="#E535AB"/>
<path d="M15.5899 27C14.5056 27 13.6292 26.1236 13.6292 25.0393C13.6292 23.955 14.5056 23.0786 15.5899 23.0786C16.6742 23.0786 17.5506 23.955 17.5506 25.0393C17.5506 26.118 16.6742 27 15.5899 27Z" fill="#E535AB"/>
<path d="M15.5899 8.92135C14.5056 8.92135 13.6292 8.04494 13.6292 6.96067C13.6292 5.8764 14.5056 5 15.5899 5C16.6742 5 17.5506 5.8764 17.5506 6.96067C17.5506 8.04494 16.6742 8.92135 15.5899 8.92135Z" fill="#E535AB"/>
<path d="M41.2285 21.2822C40.1738 21.8779 39.002 22.1758 37.7129 22.1758C36.2139 22.1758 35.0005 21.6924 34.0728 20.7256C33.1499 19.7588 32.6885 18.4795 32.6885 16.8877C32.6885 15.2617 33.2012 13.9287 34.2266 12.8887C35.2568 11.8438 36.5605 11.3213 38.1377 11.3213C39.2803 11.3213 40.2397 11.5068 41.0161 11.8779V13.2402C40.1665 12.7031 39.1606 12.4346 37.9985 12.4346C36.8218 12.4346 35.8574 12.8398 35.1055 13.6504C34.3535 14.4609 33.9775 15.5107 33.9775 16.7998C33.9775 18.1279 34.3267 19.1729 35.0249 19.9346C35.7231 20.6914 36.6704 21.0698 37.8667 21.0698C38.687 21.0698 39.3975 20.9062 39.998 20.5791V17.6348H37.6982V16.5215H41.2285V21.2822ZM47.4248 15.7158C47.2148 15.5547 46.9121 15.4741 46.5166 15.4741C46.0039 15.4741 45.5742 15.7158 45.2275 16.1992C44.8857 16.6826 44.7148 17.3418 44.7148 18.1768V22H43.5137V14.5H44.7148V16.0454H44.7441C44.915 15.5181 45.1763 15.1079 45.5278 14.8149C45.8794 14.5171 46.2725 14.3682 46.707 14.3682C47.0195 14.3682 47.2588 14.4023 47.4248 14.4707V15.7158ZM54.0972 22H52.896V20.8281H52.8667C52.3442 21.7266 51.5752 22.1758 50.5596 22.1758C49.8125 22.1758 49.2266 21.978 48.8018 21.5825C48.3818 21.187 48.1719 20.6621 48.1719 20.0078C48.1719 18.6064 48.9971 17.791 50.6475 17.5615L52.896 17.2466C52.896 15.9722 52.3809 15.335 51.3506 15.335C50.4473 15.335 49.6318 15.6426 48.9043 16.2578V15.0273C49.6416 14.5586 50.4912 14.3242 51.4531 14.3242C53.2158 14.3242 54.0972 15.2568 54.0972 17.1221V22ZM52.896 18.2061L51.0869 18.4551C50.5303 18.5332 50.1104 18.6724 49.8271 18.8726C49.5439 19.0679 49.4023 19.417 49.4023 19.9199C49.4023 20.2861 49.5317 20.5864 49.7905 20.8208C50.0542 21.0503 50.4033 21.165 50.8379 21.165C51.4336 21.165 51.9243 20.9575 52.3101 20.5425C52.7007 20.1226 52.896 19.5928 52.896 18.9531V18.2061ZM57.5908 20.916H57.5615V25.4497H56.3604V14.5H57.5615V15.8184H57.5908C58.1816 14.8223 59.0459 14.3242 60.1836 14.3242C61.1504 14.3242 61.9048 14.6611 62.4468 15.335C62.9888 16.0039 63.2598 16.9023 63.2598 18.0303C63.2598 19.2852 62.9546 20.291 62.3442 21.0479C61.7339 21.7998 60.8989 22.1758 59.8394 22.1758C58.8677 22.1758 58.1182 21.7559 57.5908 20.916ZM57.5615 17.8911V18.9385C57.5615 19.5586 57.7617 20.0859 58.1621 20.5205C58.5674 20.9502 59.0801 21.165 59.7002 21.165C60.4277 21.165 60.9966 20.8867 61.4067 20.3301C61.8218 19.7734 62.0293 18.9995 62.0293 18.0083C62.0293 17.1733 61.8364 16.519 61.4507 16.0454C61.0649 15.5718 60.5425 15.335 59.8833 15.335C59.1851 15.335 58.6235 15.5791 58.1987 16.0674C57.7739 16.5508 57.5615 17.1587 57.5615 17.8911ZM71.4043 22H70.2031V17.6787C70.2031 16.1162 69.6221 15.335 68.46 15.335C67.874 15.335 67.3809 15.562 66.9805 16.0161C66.5801 16.4653 66.3799 17.0439 66.3799 17.752V22H65.1787V10.8965H66.3799V15.7451H66.4092C66.9854 14.7979 67.8057 14.3242 68.8701 14.3242C70.5596 14.3242 71.4043 15.3423 71.4043 17.3784V22ZM78.0693 22.1758C76.585 22.1758 75.3911 21.6851 74.4878 20.7036C73.5942 19.7222 73.1475 18.4453 73.1475 16.873C73.1475 15.1787 73.604 13.8311 74.5171 12.8301C75.4351 11.8242 76.6777 11.3213 78.2451 11.3213C79.6904 11.3213 80.8574 11.8096 81.7461 12.7861C82.6348 13.7627 83.0791 15.0396 83.0791 16.6167C83.0791 18.3306 82.625 19.6855 81.7168 20.6816C81.502 20.9209 81.2725 21.126 81.0283 21.2969L83.98 23.4136H81.7461L79.7686 21.9341C79.251 22.0952 78.6846 22.1758 78.0693 22.1758ZM78.1572 12.4346C77.0537 12.4346 76.1577 12.8325 75.4692 13.6284C74.7808 14.4243 74.4365 15.4692 74.4365 16.7632C74.4365 18.0522 74.771 19.0947 75.4399 19.8906C76.1138 20.6768 76.9902 21.0698 78.0693 21.0698C79.2217 21.0698 80.1299 20.6938 80.7939 19.9419C81.458 19.1899 81.79 18.1377 81.79 16.7852C81.79 15.3936 81.4678 14.3218 80.8232 13.5698C80.1787 12.813 79.29 12.4346 78.1572 12.4346ZM90.5938 22H85.1445V11.4971H86.375V20.8867H90.5938V22Z" fill="#2F809C"/>
</svg>
