<svg width="85" height="32" viewBox="0 0 85 32" fill="none" xmlns="http://www.w3.org/2000/svg">
<rect width="85" height="32" rx="2" fill="#7F8995" fill-opacity="0.2"/>
<path d="M7 5.5L8.59375 24.0625L15.9531 26.5L23.3594 24.0625L25 5.5H7ZM21.4375 11.5H12.8125L13 13.8438H21.25L20.5938 20.7812L16 22.0469H15.9531L11.3125 20.7812L11.0312 17.2188H13.2812L13.4688 19L15.9531 19.7031L18.4844 19L18.7656 16.0938H10.9375L10.3281 9.29688H21.625L21.4375 11.5Z" fill="#E56027"/>
<path d="M41.2725 22H40.042V17.21H34.6074V22H33.377V11.4971H34.6074V16.104H40.042V11.4971H41.2725V22ZM50.2373 12.6104H47.2051V22H45.9746V12.6104H42.9497V11.4971H50.2373V12.6104ZM62.6006 22H61.3774V14.9541C61.3774 14.3975 61.4116 13.7163 61.48 12.9106H61.4507C61.3335 13.3843 61.2285 13.7236 61.1357 13.9287L57.5469 22H56.9463L53.3647 13.9873C53.2622 13.7529 53.1572 13.394 53.0498 12.9106H53.0205C53.0596 13.3306 53.0791 14.0166 53.0791 14.9688V22H51.8926V11.4971H53.5186L56.7412 18.8213C56.9902 19.3828 57.1514 19.8027 57.2246 20.0811H57.2686C57.4785 19.5049 57.647 19.0752 57.7739 18.792L61.0625 11.4971H62.6006V22ZM70.8184 22H65.3691V11.4971H66.5996V20.8867H70.8184V22Z" fill="#2F809C"/>
</svg>
