<svg width="122" height="32" viewBox="0 0 122 32" fill="none" xmlns="http://www.w3.org/2000/svg">
<rect width="122" height="32" rx="2" fill="#7F8995" fill-opacity="0.2"/>
<g clip-path="url(#clip0_336_37)">
<path d="M23.8571 6H8.14286C6.9375 6 6 6.98214 6 8.14286V23.8571C6 25.0625 6.9375 26 8.14286 26H23.8571C25.0179 26 26 25.0625 26 23.8571V8.14286C26 6.98214 25.0179 6 23.8571 6ZM16.8482 21.625C16.8482 23.5446 15.7321 24.4375 14.0357 24.4375C12.5625 24.4375 11.6696 23.6785 11.2232 22.7411L12.7857 21.8035C13.0536 22.3393 13.3214 22.7857 13.9911 22.7857C14.5714 22.7857 14.9732 22.5178 14.9732 21.5804V15.1964H16.8482V21.625ZM21.3125 24.4375C19.5714 24.4375 18.4554 23.634 17.875 22.5178L19.4375 21.6696C19.8393 22.2946 20.3304 22.7857 21.2678 22.7857C22.0268 22.7857 22.5625 22.3839 22.5625 21.8482C22.5625 21.2232 22.0268 21 21.1786 20.5982L20.6875 20.4196C19.3483 19.8393 18.4554 19.125 18.4554 17.5625C18.4554 16.1786 19.5268 15.1071 21.2232 15.1071C22.3839 15.1071 23.2768 15.5089 23.8571 16.5804L22.4286 17.5178C22.0715 16.9821 21.759 16.7143 21.1786 16.7143C20.6429 16.7143 20.2857 17.0714 20.2857 17.5178C20.2857 18.0982 20.6429 18.3215 21.4464 18.6785L21.9375 18.9018C23.5446 19.5714 24.4375 20.2857 24.4375 21.8482C24.4375 23.5446 23.0982 24.4375 21.3125 24.4375Z" fill="#E3BD23"/>
</g>
<path d="M36.0649 18.2354C36.0649 19.4805 35.8013 20.4497 35.2739 21.1431C34.7466 21.8315 34.041 22.1758 33.1572 22.1758C32.7471 22.1758 32.4102 22.1172 32.1465 22V20.7842C32.4102 20.9746 32.752 21.0698 33.1719 21.0698C34.2803 21.0698 34.8345 20.1299 34.8345 18.25V11.4971H36.0649V18.2354ZM46.502 22H45.1396L44.0264 19.0557H39.5732L38.5259 22H37.1562L41.1846 11.4971H42.459L46.502 22ZM43.6235 17.9497L41.9756 13.4746C41.9219 13.3281 41.8682 13.0938 41.8145 12.7715H41.7852C41.7363 13.0693 41.6802 13.3037 41.6167 13.4746L39.9834 17.9497H43.6235ZM54.8369 11.4971L50.9478 22H49.5928L45.7842 11.4971H47.1538L50.0615 19.8247C50.1543 20.0933 50.2251 20.4033 50.2739 20.7549H50.3032C50.3423 20.4619 50.4229 20.147 50.5449 19.8101L53.5112 11.4971H54.8369ZM63.5967 22H62.2344L61.1211 19.0557H56.668L55.6206 22H54.251L58.2793 11.4971H59.5537L63.5967 22ZM60.7183 17.9497L59.0703 13.4746C59.0166 13.3281 58.9629 13.0938 58.9092 12.7715H58.8799C58.8311 13.0693 58.7749 13.3037 58.7114 13.4746L57.0781 17.9497H60.7183ZM64.6587 21.5752V20.125C64.8247 20.2715 65.0225 20.4033 65.252 20.5205C65.4863 20.6377 65.7305 20.7378 65.9844 20.8208C66.2432 20.8989 66.502 20.96 66.7607 21.0039C67.0195 21.0479 67.2588 21.0698 67.4785 21.0698C68.2354 21.0698 68.7993 20.9307 69.1704 20.6523C69.5464 20.3691 69.7344 19.9639 69.7344 19.4365C69.7344 19.1533 69.6709 18.9067 69.5439 18.6968C69.4219 18.4868 69.251 18.2964 69.0312 18.1255C68.8115 17.9497 68.5503 17.7837 68.2476 17.6274C67.9497 17.4663 67.6274 17.2979 67.2808 17.1221C66.9146 16.9365 66.5728 16.7485 66.2554 16.5581C65.938 16.3677 65.6621 16.1577 65.4277 15.9282C65.1934 15.6987 65.0078 15.4399 64.8711 15.1519C64.7393 14.8589 64.6733 14.5171 64.6733 14.1265C64.6733 13.6479 64.7783 13.2329 64.9883 12.8813C65.1982 12.5249 65.4741 12.2319 65.8159 12.0024C66.1577 11.7729 66.5459 11.6021 66.9805 11.4897C67.4199 11.3774 67.8667 11.3213 68.3208 11.3213C69.356 11.3213 70.1104 11.4458 70.584 11.6948V13.0791C69.9639 12.6494 69.168 12.4346 68.1963 12.4346C67.9277 12.4346 67.6592 12.4639 67.3906 12.5225C67.1221 12.5762 66.8828 12.6665 66.6729 12.7935C66.4629 12.9204 66.292 13.084 66.1602 13.2842C66.0283 13.4844 65.9624 13.7285 65.9624 14.0166C65.9624 14.2852 66.0112 14.5171 66.1089 14.7124C66.2114 14.9077 66.3604 15.0859 66.5557 15.2471C66.751 15.4082 66.9878 15.5645 67.2661 15.7158C67.5493 15.8672 67.874 16.0332 68.2402 16.2139C68.6162 16.3994 68.9727 16.5947 69.3096 16.7998C69.6465 17.0049 69.9419 17.2319 70.1958 17.481C70.4497 17.73 70.6499 18.0059 70.7964 18.3086C70.9478 18.6113 71.0234 18.958 71.0234 19.3486C71.0234 19.8662 70.9209 20.3057 70.7158 20.667C70.5156 21.0234 70.2422 21.314 69.8955 21.5386C69.5537 21.7632 69.1582 21.9243 68.709 22.022C68.2598 22.1245 67.7861 22.1758 67.2881 22.1758C67.1221 22.1758 66.917 22.1611 66.6729 22.1318C66.4287 22.1074 66.1797 22.0684 65.9258 22.0146C65.6719 21.9658 65.4302 21.9048 65.2007 21.8315C64.9761 21.7534 64.7954 21.668 64.6587 21.5752ZM80.2666 21.5605C79.4902 21.9707 78.5234 22.1758 77.3662 22.1758C75.8721 22.1758 74.6758 21.6948 73.7773 20.7329C72.8789 19.771 72.4297 18.5088 72.4297 16.9463C72.4297 15.2666 72.9351 13.9092 73.9458 12.874C74.9565 11.8389 76.2383 11.3213 77.791 11.3213C78.7871 11.3213 79.6123 11.4653 80.2666 11.7534V13.0645C79.5146 12.6445 78.6846 12.4346 77.7764 12.4346C76.5703 12.4346 75.5913 12.8374 74.8394 13.6431C74.0923 14.4487 73.7188 15.5254 73.7188 16.873C73.7188 18.1523 74.0679 19.1729 74.7661 19.9346C75.4692 20.6914 76.3896 21.0698 77.5273 21.0698C78.582 21.0698 79.4951 20.8354 80.2666 20.3667V21.5605ZM89.9346 22H88.4697L86.7119 19.0557C86.5508 18.7822 86.3945 18.5503 86.2432 18.3599C86.0918 18.1646 85.9355 18.0059 85.7744 17.8838C85.6182 17.7617 85.4473 17.6738 85.2617 17.6201C85.0811 17.5615 84.876 17.5322 84.6465 17.5322H83.6357V22H82.4053V11.4971H85.54C85.999 11.4971 86.4214 11.5557 86.8071 11.6729C87.1978 11.7852 87.5347 11.9585 87.8179 12.1929C88.106 12.4272 88.3306 12.7202 88.4917 13.0718C88.6528 13.4185 88.7334 13.8262 88.7334 14.2949C88.7334 14.6611 88.6772 14.998 88.5649 15.3057C88.4575 15.6084 88.3013 15.8794 88.0962 16.1187C87.896 16.3579 87.6519 16.563 87.3638 16.7339C87.0806 16.8999 86.7607 17.0293 86.4043 17.1221V17.1514C86.5801 17.2295 86.7314 17.3198 86.8584 17.4224C86.9902 17.52 87.1147 17.6372 87.2319 17.7739C87.3491 17.9106 87.4639 18.0669 87.5762 18.2427C87.6934 18.4136 87.8228 18.6138 87.9644 18.8433L89.9346 22ZM83.6357 12.6104V16.4189H85.3057C85.6133 16.4189 85.8965 16.3726 86.1553 16.2798C86.4189 16.187 86.646 16.0552 86.8364 15.8843C87.0269 15.7085 87.1758 15.4961 87.2832 15.2471C87.3906 14.9932 87.4443 14.71 87.4443 14.3975C87.4443 13.8359 87.2612 13.3989 86.895 13.0864C86.5337 12.769 86.0088 12.6104 85.3203 12.6104H83.6357ZM92.6152 22H91.3848V11.4971H92.6152V22ZM96.6143 18.0303V22H95.3838V11.4971H98.2695C99.3926 11.4971 100.262 11.7705 100.877 12.3174C101.497 12.8643 101.807 13.6357 101.807 14.6318C101.807 15.6279 101.463 16.4434 100.774 17.0781C100.091 17.7129 99.1655 18.0303 97.9985 18.0303H96.6143ZM96.6143 12.6104V16.917H97.9033C98.7529 16.917 99.3999 16.7241 99.8442 16.3384C100.293 15.9478 100.518 15.3984 100.518 14.6904C100.518 13.3037 99.6978 12.6104 98.0571 12.6104H96.6143ZM110.003 12.6104H106.971V22H105.74V12.6104H102.715V11.4971H110.003V12.6104Z" fill="#2F809C"/>
<defs>
<clipPath id="clip0_336_37">
<rect width="20" height="20" fill="white" transform="translate(6 6)"/>
</clipPath>
</defs>
</svg>
