<svg width="92" height="32" viewBox="0 0 92 32" fill="none" xmlns="http://www.w3.org/2000/svg">
<rect width="92" height="32" rx="2" fill="#7F8995" fill-opacity="0.2"/>
<g clip-path="url(#clip0_343_116)">
<path d="M12 12L12.5405 11.6097C12.3711 11.3753 12.07 11.2767 11.7949 11.3657C11.5197 11.4546 11.3333 11.7108 11.3333 12H12ZM16 24.6667C11.2135 24.6667 7.33333 20.7865 7.33333 16H6C6 21.5228 10.4771 26 16 26V24.6667ZM24.6667 16C24.6667 20.7865 20.7865 24.6667 16 24.6667V26C21.5228 26 26 21.5228 26 16H24.6667ZM16 7.33333C20.7865 7.33333 24.6667 11.2135 24.6667 16H26C26 10.4771 21.5228 6 16 6V7.33333ZM16 6C10.4771 6 6 10.4771 6 16H7.33333C7.33333 11.2135 11.2135 7.33333 16 7.33333V6ZM12.6667 22V12H11.3333V22H12.6667ZM11.4595 12.3903L20.1263 24.3903L21.2071 23.6097L12.5405 11.6097L11.4595 12.3903ZM19.3333 11.3333V19.3333H20.6667V11.3333H19.3333Z" fill="#375170"/>
</g>
<path d="M41.8438 22H40.335L34.9297 13.6284C34.793 13.4185 34.6807 13.1987 34.5928 12.9692H34.5488C34.5879 13.1938 34.6074 13.6748 34.6074 14.4121V22H33.377V11.4971H34.9736L40.2324 19.7368C40.4521 20.0786 40.5938 20.313 40.6572 20.4399H40.6865C40.6377 20.1372 40.6133 19.6221 40.6133 18.8945V11.4971H41.8438V22ZM50.1641 22H44.5977V11.4971H49.9297V12.6104H45.8281V16.104H49.6221V17.21H45.8281V20.8867H50.1641V22ZM59.4365 22H57.9351L55.5181 17.979C55.4448 17.8569 55.3643 17.6836 55.2764 17.459H55.2471C55.1982 17.5713 55.1152 17.7446 54.998 17.979L52.5078 22H50.999L54.5146 16.7192L51.2773 11.4971H52.7861L54.9321 15.1885C55.0737 15.4326 55.1982 15.6768 55.3057 15.9209H55.335C55.4912 15.5986 55.6279 15.3447 55.7451 15.1592L57.979 11.4971H59.3926L56.0894 16.7046L59.4365 22ZM67.4932 12.6104H64.4609V22H63.2305V12.6104H60.2056V11.4971H67.4932V12.6104ZM71.0015 18.2354C71.0015 19.4805 70.7378 20.4497 70.2104 21.1431C69.6831 21.8315 68.9775 22.1758 68.0938 22.1758C67.6836 22.1758 67.3467 22.1172 67.083 22V20.7842C67.3467 20.9746 67.6885 21.0698 68.1084 21.0698C69.2168 21.0698 69.771 20.1299 69.771 18.25V11.4971H71.0015V18.2354ZM73.1841 21.5752V20.125C73.3501 20.2715 73.5479 20.4033 73.7773 20.5205C74.0117 20.6377 74.2559 20.7378 74.5098 20.8208C74.7686 20.8989 75.0273 20.96 75.2861 21.0039C75.5449 21.0479 75.7842 21.0698 76.0039 21.0698C76.7607 21.0698 77.3247 20.9307 77.6958 20.6523C78.0718 20.3691 78.2598 19.9639 78.2598 19.4365C78.2598 19.1533 78.1963 18.9067 78.0693 18.6968C77.9473 18.4868 77.7764 18.2964 77.5566 18.1255C77.3369 17.9497 77.0757 17.7837 76.7729 17.6274C76.4751 17.4663 76.1528 17.2979 75.8062 17.1221C75.4399 16.9365 75.0981 16.7485 74.7808 16.5581C74.4634 16.3677 74.1875 16.1577 73.9531 15.9282C73.7188 15.6987 73.5332 15.4399 73.3965 15.1519C73.2646 14.8589 73.1987 14.5171 73.1987 14.1265C73.1987 13.6479 73.3037 13.2329 73.5137 12.8813C73.7236 12.5249 73.9995 12.2319 74.3413 12.0024C74.6831 11.7729 75.0713 11.6021 75.5059 11.4897C75.9453 11.3774 76.3921 11.3213 76.8462 11.3213C77.8813 11.3213 78.6357 11.4458 79.1094 11.6948V13.0791C78.4893 12.6494 77.6934 12.4346 76.7217 12.4346C76.4531 12.4346 76.1846 12.4639 75.916 12.5225C75.6475 12.5762 75.4082 12.6665 75.1982 12.7935C74.9883 12.9204 74.8174 13.084 74.6855 13.2842C74.5537 13.4844 74.4878 13.7285 74.4878 14.0166C74.4878 14.2852 74.5366 14.5171 74.6343 14.7124C74.7368 14.9077 74.8857 15.0859 75.0811 15.2471C75.2764 15.4082 75.5132 15.5645 75.7915 15.7158C76.0747 15.8672 76.3994 16.0332 76.7656 16.2139C77.1416 16.3994 77.498 16.5947 77.835 16.7998C78.1719 17.0049 78.4673 17.2319 78.7212 17.481C78.9751 17.73 79.1753 18.0059 79.3218 18.3086C79.4731 18.6113 79.5488 18.958 79.5488 19.3486C79.5488 19.8662 79.4463 20.3057 79.2412 20.667C79.041 21.0234 78.7676 21.314 78.4209 21.5386C78.0791 21.7632 77.6836 21.9243 77.2344 22.022C76.7852 22.1245 76.3115 22.1758 75.8135 22.1758C75.6475 22.1758 75.4424 22.1611 75.1982 22.1318C74.9541 22.1074 74.7051 22.0684 74.4512 22.0146C74.1973 21.9658 73.9556 21.9048 73.7261 21.8315C73.5015 21.7534 73.3208 21.668 73.1841 21.5752Z" fill="#2F809C"/>
<defs>
<clipPath id="clip0_343_116">
<rect width="20" height="20" fill="white" transform="translate(6 6)"/>
</clipPath>
</defs>
</svg>
