<svg width="85" height="32" viewBox="0 0 85 32" fill="none" xmlns="http://www.w3.org/2000/svg">
<rect width="85" height="32" rx="2" fill="#7F8995" fill-opacity="0.2"/>
<path d="M22.9609 12.3984C22.7031 12.3125 22.4883 12.2266 22.2734 12.1836C22.2734 12.0117 22.3164 11.8398 22.3594 11.668C22.875 9.13281 22.5312 7.07031 21.3711 6.38281C20.2539 5.73828 18.4062 6.42578 16.5156 8.05859C16.3438 8.1875 16.1719 8.35938 16 8.53125C15.8711 8.40234 15.7422 8.31641 15.6562 8.1875C13.6797 6.46875 11.7031 5.73828 10.543 6.42578C9.42578 7.07031 9.08203 9.00391 9.55469 11.4531C9.59766 11.668 9.64062 11.9258 9.72656 12.1406C9.42578 12.2266 9.16797 12.3125 8.91016 12.3984C6.63281 13.2148 5 14.4609 5 15.75C5 17.082 6.71875 18.457 9.125 19.2734C9.29688 19.3164 9.51172 19.4023 9.68359 19.4453C9.64062 19.7031 9.59766 19.9609 9.51172 20.2188C9.08203 22.582 9.42578 24.4727 10.543 25.1172C11.7031 25.8047 13.6797 25.1172 15.5703 23.4414C15.6992 23.3125 15.8711 23.1836 16 23.0547C16.2148 23.2266 16.3867 23.3984 16.6016 23.5703C18.4492 25.1602 20.2539 25.8047 21.3711 25.1602C22.5312 24.4727 22.918 22.4531 22.4453 19.9609C22.4023 19.7891 22.3594 19.5742 22.3164 19.4023C22.4453 19.3594 22.5742 19.3164 22.7031 19.2734C25.1953 18.457 27 17.125 27 15.75C27 14.4609 25.2812 13.1719 22.9609 12.3984ZM17.1172 8.74609C18.75 7.32812 20.2109 6.8125 20.8984 7.19922C21.6289 7.58594 21.9297 9.30469 21.457 11.4961C21.4141 11.668 21.4141 11.7969 21.3711 11.9258C20.3828 11.7109 19.4375 11.582 18.4492 11.4961C17.8906 10.6797 17.2891 9.90625 16.6445 9.17578C16.8164 9.04688 16.9453 8.875 17.1172 8.74609ZM12.1758 17.9844C12.3906 18.3711 12.6055 18.7148 12.8633 19.1016C12.1758 19.0156 11.4883 18.9297 10.8438 18.7578C11.0586 18.1562 11.2734 17.5117 11.5312 16.8672C11.7461 17.2539 11.9609 17.5977 12.1758 17.9844ZM10.8438 12.8281C11.4883 12.6562 12.1328 12.5703 12.8203 12.4844C12.6055 12.8281 12.3906 13.2148 12.1758 13.5586C11.9609 13.9453 11.7461 14.2891 11.5312 14.6758C11.2734 14.0312 11.0586 13.4297 10.8438 12.8281ZM12.0469 15.793C12.3047 15.1914 12.6484 14.5898 12.9492 14.0312C13.293 13.4727 13.6367 12.9141 14.0234 12.3555C14.668 12.3125 15.3125 12.2695 16 12.2695C16.6445 12.2695 17.332 12.3125 17.9336 12.3555C18.3203 12.9141 18.6641 13.4727 19.0078 14.0312C19.3086 14.5898 19.6523 15.1484 19.9102 15.75C19.6523 16.3516 19.3516 16.9531 19.0078 17.5117C18.6641 18.0703 18.3203 18.6289 17.9766 19.1875C17.332 19.2305 16.6445 19.2734 16 19.2734C15.3125 19.2734 14.668 19.2305 14.0234 19.1875C13.6367 18.6289 13.293 18.0703 12.9492 17.5117C12.6484 16.9531 12.3477 16.3516 12.0469 15.793ZM19.7812 17.9844C20.0391 17.5977 20.2109 17.2109 20.4258 16.8242C20.6836 17.4688 20.9414 18.0703 21.1562 18.7148C20.4688 18.8867 19.8242 19.0156 19.1367 19.0586C19.3516 18.7148 19.5664 18.3281 19.7812 17.9844ZM20.4258 14.6758C20.2109 14.2891 19.9961 13.9453 19.7812 13.5586C19.5664 13.2148 19.3516 12.8281 19.1367 12.4844C19.8242 12.5703 20.5117 12.6992 21.1133 12.8281C20.8984 13.4727 20.6836 14.0742 20.4258 14.6758ZM16 9.86328C16.4297 10.3359 16.8594 10.8516 17.2461 11.4102C16.4297 11.3672 15.5703 11.3672 14.7109 11.4102C15.1406 10.8516 15.5703 10.3359 16 9.86328ZM11.0156 7.19922C11.7461 6.8125 13.3359 7.41406 15.0117 8.875C15.1406 9.00391 15.2266 9.08984 15.3555 9.17578C14.668 9.90625 14.0664 10.6797 13.5078 11.4961C12.5195 11.582 11.5742 11.7109 10.6289 11.9258C10.543 11.7109 10.5 11.4961 10.457 11.2383C10.0703 9.17578 10.3281 7.62891 11.0156 7.19922ZM9.94141 18.543C9.76953 18.5 9.59766 18.457 9.42578 18.3711C8.52344 18.0703 7.44922 17.6406 6.71875 17.0391C6.28906 16.7383 5.98828 16.2656 5.90234 15.75C5.90234 14.9766 7.27734 13.9453 9.21094 13.2578C9.46875 13.1719 9.72656 13.1289 9.98438 13.043C10.2422 13.9883 10.6289 14.8906 11.0156 15.793C10.5859 16.6523 10.2422 17.5977 9.94141 18.543ZM14.9688 22.7539C14.2383 23.3984 13.4219 23.9141 12.5195 24.2578C12.0469 24.5156 11.5312 24.5156 11.0156 24.3438C10.3281 23.9141 10.0703 22.4102 10.457 20.3906C10.5 20.1328 10.543 19.875 10.5859 19.6602C11.5742 19.875 12.5195 20.0039 13.5078 20.0898C14.0664 20.8633 14.7109 21.6367 15.3555 22.3672C15.2266 22.4961 15.0977 22.625 14.9688 22.7539ZM16 21.7227C15.5703 21.25 15.1406 20.7344 14.7109 20.1328C15.1406 20.1758 15.5703 20.1758 16 20.1758C16.4297 20.1758 16.8594 20.1758 17.2891 20.1328C16.9023 20.6914 16.4727 21.207 16 21.7227ZM21.6289 23.0117C21.5859 23.5273 21.3281 24 20.9414 24.3438C20.2539 24.7305 18.793 24.2148 17.2031 22.8828C17.0312 22.7109 16.8594 22.5391 16.6445 22.3672C17.332 21.6367 17.9336 20.9062 18.4922 20.0898C19.4805 20.0039 20.4258 19.832 21.4141 19.6172C21.457 19.7891 21.5 19.9609 21.543 20.1328C21.7148 21.0781 21.7578 22.0664 21.6289 23.0117ZM22.4023 18.3711C22.2734 18.4141 22.1875 18.457 22.0586 18.5C21.7578 17.5547 21.3711 16.6523 20.9414 15.75C21.3711 14.8906 21.7148 13.9883 22.0156 13.043C22.2305 13.1289 22.4453 13.1719 22.6602 13.2578C24.6367 13.9453 26.0547 14.9766 26.0547 15.75C26.0547 16.5664 24.5508 17.6836 22.4023 18.3711ZM16 17.7266C17.0742 17.7266 17.9336 16.8672 17.9336 15.75C17.9336 14.6758 17.0742 13.8164 16 13.8164C14.8828 13.8164 14.0234 14.6758 14.0234 15.75C14.0234 16.8672 14.8828 17.7266 16 17.7266Z" fill="#61DAFB"/>
<path d="M40.9062 22H39.4414L37.6836 19.0557C37.5225 18.7822 37.3662 18.5503 37.2148 18.3599C37.0635 18.1646 36.9072 18.0059 36.7461 17.8838C36.5898 17.7617 36.4189 17.6738 36.2334 17.6201C36.0527 17.5615 35.8477 17.5322 35.6182 17.5322H34.6074V22H33.377V11.4971H36.5117C36.9707 11.4971 37.3931 11.5557 37.7788 11.6729C38.1694 11.7852 38.5063 11.9585 38.7896 12.1929C39.0776 12.4272 39.3022 12.7202 39.4634 13.0718C39.6245 13.4185 39.7051 13.8262 39.7051 14.2949C39.7051 14.6611 39.6489 14.998 39.5366 15.3057C39.4292 15.6084 39.2729 15.8794 39.0679 16.1187C38.8677 16.3579 38.6235 16.563 38.3354 16.7339C38.0522 16.8999 37.7324 17.0293 37.376 17.1221V17.1514C37.5518 17.2295 37.7031 17.3198 37.8301 17.4224C37.9619 17.52 38.0864 17.6372 38.2036 17.7739C38.3208 17.9106 38.4355 18.0669 38.5479 18.2427C38.665 18.4136 38.7944 18.6138 38.936 18.8433L40.9062 22ZM34.6074 12.6104V16.4189H36.2773C36.585 16.4189 36.8682 16.3726 37.127 16.2798C37.3906 16.187 37.6177 16.0552 37.8081 15.8843C37.9985 15.7085 38.1475 15.4961 38.2549 15.2471C38.3623 14.9932 38.416 14.71 38.416 14.3975C38.416 13.8359 38.2329 13.3989 37.8667 13.0864C37.5054 12.769 36.9805 12.6104 36.292 12.6104H34.6074ZM47.9229 22H42.3564V11.4971H47.6885V12.6104H43.5869V16.104H47.3809V17.21H43.5869V20.8867H47.9229V22ZM58.0742 22H56.7119L55.5986 19.0557H51.1455L50.0981 22H48.7285L52.7568 11.4971H54.0312L58.0742 22ZM55.1958 17.9497L53.5479 13.4746C53.4941 13.3281 53.4404 13.0938 53.3867 12.7715H53.3574C53.3086 13.0693 53.2524 13.3037 53.189 13.4746L51.5557 17.9497H55.1958ZM66.4824 21.5605C65.7061 21.9707 64.7393 22.1758 63.582 22.1758C62.0879 22.1758 60.8916 21.6948 59.9932 20.7329C59.0947 19.771 58.6455 18.5088 58.6455 16.9463C58.6455 15.2666 59.1509 13.9092 60.1616 12.874C61.1724 11.8389 62.4541 11.3213 64.0068 11.3213C65.0029 11.3213 65.8281 11.4653 66.4824 11.7534V13.0645C65.7305 12.6445 64.9004 12.4346 63.9922 12.4346C62.7861 12.4346 61.8071 12.8374 61.0552 13.6431C60.3081 14.4487 59.9346 15.5254 59.9346 16.873C59.9346 18.1523 60.2837 19.1729 60.9819 19.9346C61.6851 20.6914 62.6055 21.0698 63.7432 21.0698C64.7979 21.0698 65.7109 20.8354 66.4824 20.3667V21.5605ZM74.832 12.6104H71.7998V22H70.5693V12.6104H67.5444V11.4971H74.832V12.6104Z" fill="#2F809C"/>
</svg>
