<svg width="89" height="32" viewBox="0 0 89 32" fill="none" xmlns="http://www.w3.org/2000/svg">
<rect width="89" height="32" rx="2" fill="#7F8995" fill-opacity="0.2"/>
<path d="M20.056 20.004C20.81 19.926 21.382 19.276 21.356 18.496C21.33 17.716 20.68 17.092 19.9 17.092H19.848C19.042 17.118 18.418 17.794 18.444 18.6C18.47 18.99 18.626 19.328 18.86 19.562C17.976 21.304 16.624 22.578 14.596 23.644C13.218 24.372 11.788 24.632 10.358 24.45C9.188 24.294 8.278 23.774 7.706 22.916C6.874 21.642 6.796 20.264 7.498 18.886C7.992 17.898 8.772 17.17 9.266 16.806C9.162 16.468 9.006 15.896 8.928 15.48C5.158 18.21 5.548 21.902 6.692 23.644C7.55 24.944 9.292 25.75 11.216 25.75C11.736 25.75 12.256 25.698 12.776 25.568C16.104 24.918 18.626 22.942 20.056 20.004V20.004Z" fill="#764ABC"/>
<path d="M24.632 16.78C22.656 14.466 19.744 13.192 16.416 13.192H16C15.766 12.724 15.272 12.412 14.726 12.412H14.674C13.868 12.438 13.244 13.114 13.27 13.92C13.296 14.7 13.946 15.324 14.726 15.324H14.778C15.35 15.298 15.844 14.934 16.052 14.44H16.52C18.496 14.44 20.368 15.012 22.058 16.13C23.358 16.988 24.294 18.106 24.814 19.458C25.256 20.55 25.23 21.616 24.762 22.526C24.034 23.904 22.812 24.658 21.2 24.658C20.16 24.658 19.172 24.346 18.652 24.112C18.366 24.372 17.846 24.788 17.482 25.048C18.6 25.568 19.744 25.854 20.836 25.854C23.332 25.854 25.178 24.476 25.88 23.098C26.634 21.59 26.582 18.99 24.632 16.78Z" fill="#764ABC"/>
<path d="M11.424 20.446C11.45 21.226 12.1 21.85 12.88 21.85H12.932C13.738 21.824 14.362 21.148 14.336 20.342C14.31 19.562 13.66 18.938 12.88 18.938H12.828C12.776 18.938 12.698 18.938 12.646 18.964C11.58 17.196 11.138 15.272 11.294 13.192C11.398 11.632 11.918 10.28 12.828 9.16201C13.582 8.20001 15.038 7.73201 16.026 7.70601C18.782 7.65401 19.952 11.086 20.03 12.464C20.368 12.542 20.94 12.724 21.33 12.854C21.018 8.64201 18.418 6.45801 15.922 6.45801C13.582 6.45801 11.424 8.14801 10.566 10.644C9.37 13.972 10.15 17.17 11.606 19.692C11.476 19.874 11.398 20.16 11.424 20.446V20.446Z" fill="#764ABC"/>
<path d="M40.9062 22H39.4414L37.6836 19.0557C37.5225 18.7822 37.3662 18.5503 37.2148 18.3599C37.0635 18.1646 36.9072 18.0059 36.7461 17.8838C36.5898 17.7617 36.4189 17.6738 36.2334 17.6201C36.0527 17.5615 35.8477 17.5322 35.6182 17.5322H34.6074V22H33.377V11.4971H36.5117C36.9707 11.4971 37.3931 11.5557 37.7788 11.6729C38.1694 11.7852 38.5063 11.9585 38.7896 12.1929C39.0776 12.4272 39.3022 12.7202 39.4634 13.0718C39.6245 13.4185 39.7051 13.8262 39.7051 14.2949C39.7051 14.6611 39.6489 14.998 39.5366 15.3057C39.4292 15.6084 39.2729 15.8794 39.0679 16.1187C38.8677 16.3579 38.6235 16.563 38.3354 16.7339C38.0522 16.8999 37.7324 17.0293 37.376 17.1221V17.1514C37.5518 17.2295 37.7031 17.3198 37.8301 17.4224C37.9619 17.52 38.0864 17.6372 38.2036 17.7739C38.3208 17.9106 38.4355 18.0669 38.5479 18.2427C38.665 18.4136 38.7944 18.6138 38.936 18.8433L40.9062 22ZM34.6074 12.6104V16.4189H36.2773C36.585 16.4189 36.8682 16.3726 37.127 16.2798C37.3906 16.187 37.6177 16.0552 37.8081 15.8843C37.9985 15.7085 38.1475 15.4961 38.2549 15.2471C38.3623 14.9932 38.416 14.71 38.416 14.3975C38.416 13.8359 38.2329 13.3989 37.8667 13.0864C37.5054 12.769 36.9805 12.6104 36.292 12.6104H34.6074ZM47.9229 22H42.3564V11.4971H47.6885V12.6104H43.5869V16.104H47.3809V17.21H43.5869V20.8867H47.9229V22ZM49.9443 22V11.4971H52.8447C56.5459 11.4971 58.3965 13.2036 58.3965 16.6167C58.3965 18.2378 57.8813 19.5415 56.8511 20.5278C55.8257 21.5093 54.4512 22 52.7275 22H49.9443ZM51.1748 12.6104V20.8867H52.7422C54.1191 20.8867 55.1909 20.5181 55.9575 19.7808C56.7241 19.0435 57.1074 17.9985 57.1074 16.646C57.1074 13.9556 55.6768 12.6104 52.8154 12.6104H51.1748ZM68.145 17.752C68.145 20.7012 66.8145 22.1758 64.1533 22.1758C61.6045 22.1758 60.3301 20.7573 60.3301 17.9204V11.4971H61.5605V17.8398C61.5605 19.9932 62.4688 21.0698 64.2852 21.0698C66.0381 21.0698 66.9146 20.0298 66.9146 17.9497V11.4971H68.145V17.752ZM78.0254 22H76.5239L74.1069 17.979C74.0337 17.8569 73.9531 17.6836 73.8652 17.459H73.8359C73.7871 17.5713 73.7041 17.7446 73.5869 17.979L71.0967 22H69.5879L73.1035 16.7192L69.8662 11.4971H71.375L73.521 15.1885C73.6626 15.4326 73.7871 15.6768 73.8945 15.9209H73.9238C74.0801 15.5986 74.2168 15.3447 74.334 15.1592L76.5679 11.4971H77.9814L74.6782 16.7046L78.0254 22Z" fill="#2F809C"/>
</svg>
