<svg width="70" height="32" viewBox="0 0 70 32" fill="none" xmlns="http://www.w3.org/2000/svg">
<rect width="70" height="32" rx="2" fill="#7F8995" fill-opacity="0.2"/>
<path d="M15.332 20.5742C15.332 20.6094 15.332 20.6094 15.332 20.5742V20.5742ZM24.0859 17.5156C23.3828 17.5156 22.6797 17.6914 22.0469 18.0078C21.8711 17.5859 21.625 17.2344 21.5898 16.9531C21.5547 16.6367 21.5195 16.4258 21.5547 16.0742C21.625 15.6875 21.8359 15.125 21.8359 15.0898C21.8359 15.0547 21.8008 14.8789 21.3438 14.8789C20.8867 14.8789 20.5 14.9492 20.4297 15.0898C20.3594 15.3008 20.2891 15.5117 20.2539 15.7578C20.1836 16.1445 19.3398 17.6211 18.8828 18.3945C18.7422 18.0781 18.6016 17.832 18.5664 17.6211C18.5312 17.3047 18.4961 17.0938 18.5312 16.7422C18.5664 16.3555 18.8125 15.8281 18.8125 15.7578C18.7773 15.7227 18.7422 15.5469 18.2852 15.5469C17.8281 15.5469 17.4414 15.6172 17.4062 15.7578C17.3711 15.8633 17.3008 16.1445 17.2305 16.4258C17.125 16.6719 16.0352 19.1328 15.7539 19.7656C15.5781 20.082 15.4727 20.3633 15.3672 20.5391C15.3672 20.5742 15.3672 20.5742 15.332 20.5742C15.3672 20.5742 15.3672 20.5391 15.3672 20.5742C15.2969 20.7148 15.2266 20.7852 15.2266 20.7852C15.1914 20.9258 15.1211 21.0312 15.0859 21.0312C15.0508 21.0312 15.0156 20.7148 15.0859 20.3281C15.2617 19.4492 15.6484 18.1484 15.6484 18.1133C15.6484 18.0781 15.7188 17.832 15.4023 17.7266C15.0508 17.6211 14.9453 17.7969 14.9102 17.7969L14.875 17.8672C14.875 17.8672 15.2266 16.3906 14.207 16.3906C13.5391 16.3906 12.6602 17.0938 12.2031 17.7266C11.9219 17.8672 11.3242 18.2188 10.6914 18.5703C10.4453 18.6758 10.1992 18.8164 9.95312 18.957L9.91797 18.9219C8.65234 17.5508 6.33203 16.6016 6.4375 14.8086C6.47266 14.1406 6.68359 12.418 10.9023 10.3438C14.3477 8.62109 17.0898 9.07812 17.582 10.1328C18.25 11.6445 16.1055 14.4219 12.5195 14.8086C11.1484 14.9492 10.4453 14.4219 10.2695 14.2461C10.0586 14.0352 10.0586 14.0352 9.98828 14.0703C9.84766 14.1055 9.91797 14.3164 9.98828 14.4219C10.0938 14.7031 10.5156 15.1953 11.2539 15.4414C11.9219 15.6523 13.5391 15.7578 15.4727 15.0195C17.6172 14.1758 19.3047 11.8555 18.8125 9.88672C18.3203 7.91797 15.0508 7.25 11.9219 8.375C10.0586 9.00781 8.05469 10.0625 6.61328 11.3984C4.92578 13.0156 4.64453 14.3867 4.75 14.9844C5.17188 17.0586 8.01953 18.3945 9.14453 19.4141C9.10938 19.4492 9.03906 19.4492 9.00391 19.4844C8.40625 19.7656 6.26172 20.9258 5.69922 22.1211C5.10156 23.4922 5.80469 24.4766 6.26172 24.582C7.73828 25.0039 9.25 24.2656 10.0586 23.0703C10.8672 21.8398 10.7617 20.293 10.375 19.5547C10.375 19.5547 10.375 19.5547 10.375 19.5195C10.5156 19.4492 10.6914 19.3438 10.832 19.2734C11.1133 19.0977 11.3945 18.957 11.6406 18.8164C11.5 19.168 11.3945 19.625 11.3594 20.293C11.2891 21.0664 11.6055 22.0859 12.0273 22.4727C12.2031 22.6484 12.4492 22.6484 12.5547 22.6484C13.0469 22.6484 13.2578 22.2617 13.5039 21.7695C13.8203 21.1719 14.0664 20.5039 14.0664 20.5039C14.0664 20.5039 13.75 22.332 14.6641 22.332C14.9805 22.332 15.2969 21.9102 15.4727 21.6992C15.4727 21.6992 15.4727 21.6992 15.4727 21.6641C15.5078 21.5938 15.543 21.5586 15.543 21.5586C15.6836 21.3477 15.9648 20.8203 16.3867 19.9414C16.9844 18.8164 17.5117 17.4453 17.5117 17.4453C17.582 17.7266 17.6523 18.043 17.7227 18.3242C17.8281 18.6758 18.0391 19.0273 18.2148 19.3789C18.0742 19.5898 18.0039 19.6953 18.0039 19.6953C17.8984 19.8359 17.7578 19.9766 17.6523 20.1172C17.1953 20.6797 16.668 21.2773 16.5977 21.4531C16.4922 21.6641 16.5273 21.8047 16.7031 21.9453C16.8086 22.0156 17.0195 22.0508 17.2305 22.0156C17.6523 21.9805 17.9336 21.9102 18.0742 21.8398C18.3203 21.7344 18.5664 21.6289 18.7773 21.4531C19.2344 21.1367 19.4805 20.6797 19.4453 20.0469C19.4453 19.7305 19.3398 19.3789 19.1992 19.0625C19.2344 19.0273 19.2695 18.957 19.3398 18.8867C20.0078 17.8672 20.5703 16.7422 20.5703 16.7422C20.6055 17.0586 20.6758 17.375 20.7812 17.6562C20.8516 17.9375 21.0273 18.2539 21.168 18.5703C20.5352 19.0977 20.1133 19.7305 19.9727 20.1172C19.7266 20.8555 19.9375 21.207 20.2891 21.2773C20.4648 21.3125 20.7109 21.2422 20.9219 21.1719C21.168 21.0664 21.4492 20.9258 21.6602 20.7852C22.1172 20.4336 22.5391 19.9766 22.5039 19.3789C22.5039 19.0977 22.3984 18.8164 22.293 18.5703C22.8555 18.3242 23.5938 18.1836 24.5078 18.2891C26.4414 18.5352 26.8281 19.7656 26.7578 20.2578C26.6875 20.7852 26.2656 21.0664 26.125 21.1367C25.9844 21.2422 25.9492 21.2422 25.9844 21.3125C25.9844 21.418 26.0547 21.418 26.1602 21.3828C26.3359 21.3477 27.1797 20.9609 27.2148 20.0117C27.2852 18.8164 26.125 17.5156 24.0859 17.5156ZM9.00391 22.6133C8.37109 23.3164 7.45703 23.5977 7.07031 23.3516C6.64844 23.1055 6.82422 22.0859 7.63281 21.3125C8.08984 20.8555 8.72266 20.4336 9.14453 20.1875C9.25 20.1172 9.35547 20.0469 9.53125 19.9414C9.56641 19.9414 9.56641 19.9062 9.56641 19.9062C9.60156 19.9062 9.63672 19.8711 9.67188 19.8711C9.98828 20.9258 9.70703 21.875 9.00391 22.6133ZM13.75 19.4141C13.5039 19.9414 13.0469 21.3477 12.7656 21.2773C12.5195 21.2422 12.3438 20.1523 12.6953 19.0977C12.8711 18.5703 13.2578 17.9375 13.4688 17.6914C13.8203 17.3047 14.207 17.1641 14.3125 17.3398C14.418 17.5156 13.8906 19.0625 13.75 19.4141ZM17.6523 21.2773C17.5469 21.3125 17.4414 21.3477 17.4062 21.3125C17.3711 21.3125 17.4414 21.2422 17.4414 21.2422C17.4414 21.2422 17.9336 20.7148 18.1445 20.4688C18.25 20.3281 18.3906 20.1875 18.5312 19.9766C18.5312 20.0117 18.5312 20.0117 18.5312 20.0469C18.5312 20.6797 17.8984 21.1016 17.6523 21.2773ZM20.6406 20.5742C20.5703 20.5391 20.6055 20.3633 20.8164 19.8711C20.9219 19.6602 21.1328 19.3086 21.4844 18.9922C21.5195 19.0977 21.5547 19.2383 21.5547 19.3789C21.5547 20.1523 20.9922 20.4688 20.6406 20.5742Z" fill="#CF649A"/>
<path d="M32.8862 21.5752V20.125C33.0522 20.2715 33.25 20.4033 33.4795 20.5205C33.7139 20.6377 33.958 20.7378 34.2119 20.8208C34.4707 20.8989 34.7295 20.96 34.9883 21.0039C35.2471 21.0479 35.4863 21.0698 35.7061 21.0698C36.4629 21.0698 37.0269 20.9307 37.3979 20.6523C37.7739 20.3691 37.9619 19.9639 37.9619 19.4365C37.9619 19.1533 37.8984 18.9067 37.7715 18.6968C37.6494 18.4868 37.4785 18.2964 37.2588 18.1255C37.0391 17.9497 36.7778 17.7837 36.4751 17.6274C36.1772 17.4663 35.855 17.2979 35.5083 17.1221C35.1421 16.9365 34.8003 16.7485 34.4829 16.5581C34.1655 16.3677 33.8896 16.1577 33.6553 15.9282C33.4209 15.6987 33.2354 15.4399 33.0986 15.1519C32.9668 14.8589 32.9009 14.5171 32.9009 14.1265C32.9009 13.6479 33.0059 13.2329 33.2158 12.8813C33.4258 12.5249 33.7017 12.2319 34.0435 12.0024C34.3853 11.7729 34.7734 11.6021 35.208 11.4897C35.6475 11.3774 36.0942 11.3213 36.5483 11.3213C37.5835 11.3213 38.3379 11.4458 38.8115 11.6948V13.0791C38.1914 12.6494 37.3955 12.4346 36.4238 12.4346C36.1553 12.4346 35.8867 12.4639 35.6182 12.5225C35.3496 12.5762 35.1104 12.6665 34.9004 12.7935C34.6904 12.9204 34.5195 13.084 34.3877 13.2842C34.2559 13.4844 34.1899 13.7285 34.1899 14.0166C34.1899 14.2852 34.2388 14.5171 34.3364 14.7124C34.439 14.9077 34.5879 15.0859 34.7832 15.2471C34.9785 15.4082 35.2153 15.5645 35.4937 15.7158C35.7769 15.8672 36.1016 16.0332 36.4678 16.2139C36.8438 16.3994 37.2002 16.5947 37.5371 16.7998C37.874 17.0049 38.1694 17.2319 38.4233 17.481C38.6772 17.73 38.8774 18.0059 39.0239 18.3086C39.1753 18.6113 39.251 18.958 39.251 19.3486C39.251 19.8662 39.1484 20.3057 38.9434 20.667C38.7432 21.0234 38.4697 21.314 38.123 21.5386C37.7812 21.7632 37.3857 21.9243 36.9365 22.022C36.4873 22.1245 36.0137 22.1758 35.5156 22.1758C35.3496 22.1758 35.1445 22.1611 34.9004 22.1318C34.6562 22.1074 34.4072 22.0684 34.1533 22.0146C33.8994 21.9658 33.6577 21.9048 33.4282 21.8315C33.2036 21.7534 33.0229 21.668 32.8862 21.5752ZM49.4756 22H48.1133L47 19.0557H42.5469L41.4995 22H40.1299L44.1582 11.4971H45.4326L49.4756 22ZM46.5972 17.9497L44.9492 13.4746C44.8955 13.3281 44.8418 13.0938 44.7881 12.7715H44.7588C44.71 13.0693 44.6538 13.3037 44.5903 13.4746L42.957 17.9497H46.5972ZM50.5376 21.5752V20.125C50.7036 20.2715 50.9014 20.4033 51.1309 20.5205C51.3652 20.6377 51.6094 20.7378 51.8633 20.8208C52.1221 20.8989 52.3809 20.96 52.6396 21.0039C52.8984 21.0479 53.1377 21.0698 53.3574 21.0698C54.1143 21.0698 54.6782 20.9307 55.0493 20.6523C55.4253 20.3691 55.6133 19.9639 55.6133 19.4365C55.6133 19.1533 55.5498 18.9067 55.4229 18.6968C55.3008 18.4868 55.1299 18.2964 54.9102 18.1255C54.6904 17.9497 54.4292 17.7837 54.1265 17.6274C53.8286 17.4663 53.5063 17.2979 53.1597 17.1221C52.7935 16.9365 52.4517 16.7485 52.1343 16.5581C51.8169 16.3677 51.541 16.1577 51.3066 15.9282C51.0723 15.6987 50.8867 15.4399 50.75 15.1519C50.6182 14.8589 50.5522 14.5171 50.5522 14.1265C50.5522 13.6479 50.6572 13.2329 50.8672 12.8813C51.0771 12.5249 51.353 12.2319 51.6948 12.0024C52.0366 11.7729 52.4248 11.6021 52.8594 11.4897C53.2988 11.3774 53.7456 11.3213 54.1997 11.3213C55.2349 11.3213 55.9893 11.4458 56.4629 11.6948V13.0791C55.8428 12.6494 55.0469 12.4346 54.0752 12.4346C53.8066 12.4346 53.5381 12.4639 53.2695 12.5225C53.001 12.5762 52.7617 12.6665 52.5518 12.7935C52.3418 12.9204 52.1709 13.084 52.0391 13.2842C51.9072 13.4844 51.8413 13.7285 51.8413 14.0166C51.8413 14.2852 51.8901 14.5171 51.9878 14.7124C52.0903 14.9077 52.2393 15.0859 52.4346 15.2471C52.6299 15.4082 52.8667 15.5645 53.145 15.7158C53.4282 15.8672 53.7529 16.0332 54.1191 16.2139C54.4951 16.3994 54.8516 16.5947 55.1885 16.7998C55.5254 17.0049 55.8208 17.2319 56.0747 17.481C56.3286 17.73 56.5288 18.0059 56.6753 18.3086C56.8267 18.6113 56.9023 18.958 56.9023 19.3486C56.9023 19.8662 56.7998 20.3057 56.5947 20.667C56.3945 21.0234 56.1211 21.314 55.7744 21.5386C55.4326 21.7632 55.0371 21.9243 54.5879 22.022C54.1387 22.1245 53.665 22.1758 53.167 22.1758C53.001 22.1758 52.7959 22.1611 52.5518 22.1318C52.3076 22.1074 52.0586 22.0684 51.8047 22.0146C51.5508 21.9658 51.3091 21.9048 51.0796 21.8315C50.855 21.7534 50.6743 21.668 50.5376 21.5752ZM58.5063 21.5752V20.125C58.6724 20.2715 58.8701 20.4033 59.0996 20.5205C59.334 20.6377 59.5781 20.7378 59.832 20.8208C60.0908 20.8989 60.3496 20.96 60.6084 21.0039C60.8672 21.0479 61.1064 21.0698 61.3262 21.0698C62.083 21.0698 62.647 20.9307 63.0181 20.6523C63.394 20.3691 63.582 19.9639 63.582 19.4365C63.582 19.1533 63.5186 18.9067 63.3916 18.6968C63.2695 18.4868 63.0986 18.2964 62.8789 18.1255C62.6592 17.9497 62.3979 17.7837 62.0952 17.6274C61.7974 17.4663 61.4751 17.2979 61.1284 17.1221C60.7622 16.9365 60.4204 16.7485 60.103 16.5581C59.7856 16.3677 59.5098 16.1577 59.2754 15.9282C59.041 15.6987 58.8555 15.4399 58.7188 15.1519C58.5869 14.8589 58.521 14.5171 58.521 14.1265C58.521 13.6479 58.626 13.2329 58.8359 12.8813C59.0459 12.5249 59.3218 12.2319 59.6636 12.0024C60.0054 11.7729 60.3936 11.6021 60.8281 11.4897C61.2676 11.3774 61.7144 11.3213 62.1685 11.3213C63.2036 11.3213 63.958 11.4458 64.4316 11.6948V13.0791C63.8115 12.6494 63.0156 12.4346 62.0439 12.4346C61.7754 12.4346 61.5068 12.4639 61.2383 12.5225C60.9697 12.5762 60.7305 12.6665 60.5205 12.7935C60.3105 12.9204 60.1396 13.084 60.0078 13.2842C59.876 13.4844 59.8101 13.7285 59.8101 14.0166C59.8101 14.2852 59.8589 14.5171 59.9565 14.7124C60.0591 14.9077 60.208 15.0859 60.4033 15.2471C60.5986 15.4082 60.8354 15.5645 61.1138 15.7158C61.397 15.8672 61.7217 16.0332 62.0879 16.2139C62.4639 16.3994 62.8203 16.5947 63.1572 16.7998C63.4941 17.0049 63.7896 17.2319 64.0435 17.481C64.2974 17.73 64.4976 18.0059 64.644 18.3086C64.7954 18.6113 64.8711 18.958 64.8711 19.3486C64.8711 19.8662 64.7686 20.3057 64.5635 20.667C64.3633 21.0234 64.0898 21.314 63.7432 21.5386C63.4014 21.7632 63.0059 21.9243 62.5566 22.022C62.1074 22.1245 61.6338 22.1758 61.1357 22.1758C60.9697 22.1758 60.7646 22.1611 60.5205 22.1318C60.2764 22.1074 60.0273 22.0684 59.7734 22.0146C59.5195 21.9658 59.2778 21.9048 59.0483 21.8315C58.8237 21.7534 58.6431 21.668 58.5063 21.5752Z" fill="#2F809C"/>
</svg>
