<svg width="196" height="32" viewBox="0 0 196 32" fill="none" xmlns="http://www.w3.org/2000/svg">
<rect width="196" height="32" rx="2" fill="#7F8995" fill-opacity="0.2"/>
<g clip-path="url(#clip0_340_85)">
<path d="M21.8436 6.47635L21.7073 7.18726C21.4964 8.53453 21.5727 8.91998 22.1509 9.41998L22.7091 9.8818L22.1309 12.46C21.7854 13.9982 21.3618 15.2873 21.0927 15.7109C20.8618 16.0763 20.5927 16.6145 20.5345 16.9036C20.4382 17.2491 20.1109 17.5963 19.6109 17.9036C19.1691 18.1545 18.3018 18.8273 17.6873 19.3673C17.1964 19.8091 16.8582 20.08 16.6745 20.1963L16.0745 20.6709C15.9202 20.8997 15.8042 21.1521 15.7309 21.4182C15.6891 21.6127 15.7127 21.7418 15.7745 21.8363C15.8345 21.9273 15.9382 21.9909 16.08 22.0309C16.2479 22.0702 16.4207 22.0843 16.5927 22.0727C16.9819 22.0461 17.3672 21.9779 17.7418 21.8691C17.8691 21.8345 17.9691 21.8018 18.0564 21.7727C18.3545 21.6267 19.06 21.4109 19.6109 20.8673C21.0727 19.4254 21.0727 18.52 20.4964 18.7327C20.2836 18.8091 20.38 18.6163 20.7455 18.2309C21.5164 17.48 21.9582 16.3454 22.8818 12.7873C23.6127 9.97817 23.6127 9.93817 24.1509 9.93817C24.4036 9.93817 25.1182 9.9818 25.1182 9.9818V6.47635H23.4782H21.8436ZM15.3673 12.4854C14.8364 12.4818 13.6945 13.2909 10.2764 16.0818C10.1291 16.4327 10.1164 16.6745 10.1836 16.8309C10.2273 16.9382 10.3073 17.0127 10.4182 17.0673C10.5273 17.1218 10.6691 17.1545 10.8255 17.1673C11.1364 17.1945 11.5036 17.1454 11.8 17.0873L12.0345 17.0091C12.103 16.9173 12.204 17.0873 12.5282 17.0091C12.7391 16.8927 13.7509 16.4109 14.6364 15.5455C16.1945 13.9673 16.1673 12.7473 15.5327 12.5163C15.4807 12.4956 15.4251 12.4851 15.3691 12.4854H15.3673ZM19.36 13.5818C18.8927 13.5945 18.0509 14.1363 16.6091 15.2873C15.8855 15.8745 15.4273 16.1909 15.1818 16.2563L14.2291 17.0091C13.8709 17.6636 13.8182 18.0691 13.9127 18.2927C13.9364 18.3479 13.9707 18.3978 14.0138 18.4396C14.0569 18.4814 14.1078 18.5143 14.1636 18.5363C14.3025 18.5912 14.4507 18.619 14.6 18.6182C14.9569 18.6144 15.3116 18.5624 15.6545 18.4636C15.8333 18.4157 16.0098 18.3598 16.1836 18.2963L16.2364 18.2745L16.3327 18.2236C16.6091 18.1144 17.4909 17.5963 18.0145 17.0873C19.6691 15.4909 19.9564 14.3073 19.7836 13.8836C19.7055 13.6782 19.5709 13.5745 19.36 13.5818ZM14.9527 15.5454C14.8182 15.56 14.5164 15.7927 13.9727 16.2691C13.1873 16.9636 12.3309 17.3636 12.0345 17.1854C11.9657 17.201 11.8966 17.2155 11.8273 17.2291C11.5255 17.2891 11.1491 17.3382 10.8127 17.3109C10.6542 17.3013 10.4989 17.2625 10.3545 17.1963C10.2184 17.1341 10.1097 17.0241 10.0491 16.8873C9.98182 16.7236 9.98182 16.52 10.0582 16.26L8.87636 17.2309L6.20181 19.4436V23.0309L14.9655 16.1273C14.9638 16.0517 14.9736 15.9763 14.9945 15.9036C15.0618 15.66 15.0582 15.5363 14.9527 15.5473V15.5454ZM18.7236 16.7073C18.5909 16.7073 18.3691 16.8945 18.0145 17.2709C17.5327 17.7854 16.7745 18.2836 16.3727 18.3854L16.3109 18.4182C16.2449 18.4454 16.1782 18.4709 16.1109 18.4945C16.0018 18.5309 15.86 18.5745 15.6964 18.6182C15.3691 18.7073 14.9618 18.7891 14.5982 18.78C14.4267 18.7798 14.257 18.7464 14.0982 18.6818C13.9485 18.6201 13.8286 18.5028 13.7636 18.3545C13.6582 18.1018 13.7 17.7473 13.9309 17.2436L6.2 23.3327V25.5236H9.59636L16.8 19.8654C16.9873 19.6582 17.2691 19.3745 17.6491 19.02C18.6673 18.0763 18.8982 17.7509 18.8982 17.2691C18.8982 16.8945 18.8564 16.7054 18.7236 16.7054V16.7073ZM20.4382 20.2527L19.8218 20.8673C19.4764 21.1945 18.86 21.5982 18.4382 21.7709L18.3545 21.8073L18.3491 21.8163L18.3309 21.8345C18.3145 21.8473 18.3073 21.8491 18.2945 21.8545C18.1262 21.9183 17.9551 21.9747 17.7818 22.0236C17.3966 22.1358 17.0003 22.2059 16.6 22.2327C16.4107 22.2448 16.2207 22.2283 16.0364 22.1836C15.8764 22.1484 15.7352 22.0551 15.64 21.9218C15.5527 21.7873 15.5273 21.6073 15.5764 21.3854C15.6154 21.2275 15.6734 21.0749 15.7491 20.9309L9.93636 25.5236H17.6673L18.5909 24.4654C19.86 22.9854 20.4382 21.9273 20.4382 21.0218V20.2527Z" fill="#FFD04E"/>
</g>
<path d="M32.8862 21.5752V20.125C33.0522 20.2715 33.25 20.4033 33.4795 20.5205C33.7139 20.6377 33.958 20.7378 34.2119 20.8208C34.4707 20.8989 34.7295 20.96 34.9883 21.0039C35.2471 21.0479 35.4863 21.0698 35.7061 21.0698C36.4629 21.0698 37.0269 20.9307 37.3979 20.6523C37.7739 20.3691 37.9619 19.9639 37.9619 19.4365C37.9619 19.1533 37.8984 18.9067 37.7715 18.6968C37.6494 18.4868 37.4785 18.2964 37.2588 18.1255C37.0391 17.9497 36.7778 17.7837 36.4751 17.6274C36.1772 17.4663 35.855 17.2979 35.5083 17.1221C35.1421 16.9365 34.8003 16.7485 34.4829 16.5581C34.1655 16.3677 33.8896 16.1577 33.6553 15.9282C33.4209 15.6987 33.2354 15.4399 33.0986 15.1519C32.9668 14.8589 32.9009 14.5171 32.9009 14.1265C32.9009 13.6479 33.0059 13.2329 33.2158 12.8813C33.4258 12.5249 33.7017 12.2319 34.0435 12.0024C34.3853 11.7729 34.7734 11.6021 35.208 11.4897C35.6475 11.3774 36.0942 11.3213 36.5483 11.3213C37.5835 11.3213 38.3379 11.4458 38.8115 11.6948V13.0791C38.1914 12.6494 37.3955 12.4346 36.4238 12.4346C36.1553 12.4346 35.8867 12.4639 35.6182 12.5225C35.3496 12.5762 35.1104 12.6665 34.9004 12.7935C34.6904 12.9204 34.5195 13.084 34.3877 13.2842C34.2559 13.4844 34.1899 13.7285 34.1899 14.0166C34.1899 14.2852 34.2388 14.5171 34.3364 14.7124C34.439 14.9077 34.5879 15.0859 34.7832 15.2471C34.9785 15.4082 35.2153 15.5645 35.4937 15.7158C35.7769 15.8672 36.1016 16.0332 36.4678 16.2139C36.8438 16.3994 37.2002 16.5947 37.5371 16.7998C37.874 17.0049 38.1694 17.2319 38.4233 17.481C38.6772 17.73 38.8774 18.0059 39.0239 18.3086C39.1753 18.6113 39.251 18.958 39.251 19.3486C39.251 19.8662 39.1484 20.3057 38.9434 20.667C38.7432 21.0234 38.4697 21.314 38.123 21.5386C37.7812 21.7632 37.3857 21.9243 36.9365 22.022C36.4873 22.1245 36.0137 22.1758 35.5156 22.1758C35.3496 22.1758 35.1445 22.1611 34.9004 22.1318C34.6562 22.1074 34.4072 22.0684 34.1533 22.0146C33.8994 21.9658 33.6577 21.9048 33.4282 21.8315C33.2036 21.7534 33.0229 21.668 32.8862 21.5752ZM47.5566 12.6104H44.5244V22H43.2939V12.6104H40.269V11.4971H47.5566V12.6104ZM56.3311 11.4971L52.8667 18.1182V22H51.6362V18.1475L48.2598 11.4971H49.6587L52.0098 16.2432C52.0391 16.3018 52.1245 16.5166 52.2661 16.8877H52.2881C52.3369 16.7217 52.4297 16.5068 52.5664 16.2432L55.0273 11.4971H56.3311ZM63.2451 22H57.7959V11.4971H59.0264V20.8867H63.2451V22ZM70.4229 22H64.8564V11.4971H70.1885V12.6104H66.0869V16.104H69.8809V17.21H66.0869V20.8867H70.4229V22ZM72.4443 22V11.4971H75.3447C79.0459 11.4971 80.8965 13.2036 80.8965 16.6167C80.8965 18.2378 80.3813 19.5415 79.3511 20.5278C78.3257 21.5093 76.9512 22 75.2275 22H72.4443ZM73.6748 12.6104V20.8867H75.2422C76.6191 20.8867 77.6909 20.5181 78.4575 19.7808C79.2241 19.0435 79.6074 17.9985 79.6074 16.646C79.6074 13.9556 78.1768 12.6104 75.3154 12.6104H73.6748ZM94.2266 21.5605C93.4502 21.9707 92.4834 22.1758 91.3262 22.1758C89.832 22.1758 88.6357 21.6948 87.7373 20.7329C86.8389 19.771 86.3896 18.5088 86.3896 16.9463C86.3896 15.2666 86.895 13.9092 87.9058 12.874C88.9165 11.8389 90.1982 11.3213 91.751 11.3213C92.7471 11.3213 93.5723 11.4653 94.2266 11.7534V13.0645C93.4746 12.6445 92.6445 12.4346 91.7363 12.4346C90.5303 12.4346 89.5513 12.8374 88.7993 13.6431C88.0522 14.4487 87.6787 15.5254 87.6787 16.873C87.6787 18.1523 88.0278 19.1729 88.7261 19.9346C89.4292 20.6914 90.3496 21.0698 91.4873 21.0698C92.542 21.0698 93.4551 20.8354 94.2266 20.3667V21.5605ZM100.188 22.1758C98.6992 22.1758 97.5054 21.6851 96.6069 20.7036C95.7134 19.7222 95.2666 18.4453 95.2666 16.873C95.2666 15.1836 95.7231 13.8359 96.6362 12.8301C97.5493 11.8242 98.792 11.3213 100.364 11.3213C101.814 11.3213 102.981 11.8096 103.865 12.7861C104.754 13.7627 105.198 15.0396 105.198 16.6167C105.198 18.3306 104.744 19.6855 103.836 20.6816C102.928 21.6777 101.712 22.1758 100.188 22.1758ZM100.276 12.4346C99.1729 12.4346 98.2769 12.8325 97.5884 13.6284C96.8999 14.4243 96.5557 15.4692 96.5557 16.7632C96.5557 18.0571 96.8901 19.0996 97.5591 19.8906C98.2329 20.6768 99.1094 21.0698 100.188 21.0698C101.341 21.0698 102.249 20.6938 102.913 19.9419C103.577 19.1899 103.909 18.1377 103.909 16.7852C103.909 15.3984 103.587 14.3267 102.942 13.5698C102.298 12.813 101.409 12.4346 100.276 12.4346ZM117.972 22H116.749V14.9541C116.749 14.3975 116.783 13.7163 116.851 12.9106H116.822C116.705 13.3843 116.6 13.7236 116.507 13.9287L112.918 22H112.317L108.736 13.9873C108.633 13.7529 108.528 13.394 108.421 12.9106H108.392C108.431 13.3306 108.45 14.0166 108.45 14.9688V22H107.264V11.4971H108.89L112.112 18.8213C112.361 19.3828 112.522 19.8027 112.596 20.0811H112.64C112.85 19.5049 113.018 19.0752 113.145 18.792L116.434 11.4971H117.972V22ZM121.971 18.0303V22H120.74V11.4971H123.626C124.749 11.4971 125.618 11.7705 126.233 12.3174C126.854 12.8643 127.164 13.6357 127.164 14.6318C127.164 15.6279 126.819 16.4434 126.131 17.0781C125.447 17.7129 124.522 18.0303 123.355 18.0303H121.971ZM121.971 12.6104V16.917H123.26C124.109 16.917 124.756 16.7241 125.201 16.3384C125.65 15.9478 125.875 15.3984 125.875 14.6904C125.875 13.3037 125.054 12.6104 123.414 12.6104H121.971ZM133.382 22.1758C131.893 22.1758 130.699 21.6851 129.8 20.7036C128.907 19.7222 128.46 18.4453 128.46 16.873C128.46 15.1836 128.917 13.8359 129.83 12.8301C130.743 11.8242 131.985 11.3213 133.558 11.3213C135.008 11.3213 136.175 11.8096 137.059 12.7861C137.947 13.7627 138.392 15.0396 138.392 16.6167C138.392 18.3306 137.938 19.6855 137.029 20.6816C136.121 21.6777 134.905 22.1758 133.382 22.1758ZM133.47 12.4346C132.366 12.4346 131.47 12.8325 130.782 13.6284C130.093 14.4243 129.749 15.4692 129.749 16.7632C129.749 18.0571 130.083 19.0996 130.752 19.8906C131.426 20.6768 132.303 21.0698 133.382 21.0698C134.534 21.0698 135.442 20.6938 136.106 19.9419C136.771 19.1899 137.103 18.1377 137.103 16.7852C137.103 15.3984 136.78 14.3267 136.136 13.5698C135.491 12.813 134.603 12.4346 133.47 12.4346ZM148.924 22H147.415L142.01 13.6284C141.873 13.4185 141.761 13.1987 141.673 12.9692H141.629C141.668 13.1938 141.688 13.6748 141.688 14.4121V22H140.457V11.4971H142.054L147.312 19.7368C147.532 20.0786 147.674 20.313 147.737 20.4399H147.767C147.718 20.1372 147.693 19.6221 147.693 18.8945V11.4971H148.924V22ZM157.244 22H151.678V11.4971H157.01V12.6104H152.908V16.104H156.702V17.21H152.908V20.8867H157.244V22ZM167.732 22H166.224L160.818 13.6284C160.682 13.4185 160.569 13.1987 160.481 12.9692H160.438C160.477 13.1938 160.496 13.6748 160.496 14.4121V22H159.266V11.4971H160.862L166.121 19.7368C166.341 20.0786 166.482 20.313 166.546 20.4399H166.575C166.526 20.1372 166.502 19.6221 166.502 18.8945V11.4971H167.732V22ZM176.697 12.6104H173.665V22H172.435V12.6104H169.41V11.4971H176.697V12.6104ZM177.569 21.5752V20.125C177.735 20.2715 177.933 20.4033 178.162 20.5205C178.396 20.6377 178.641 20.7378 178.895 20.8208C179.153 20.8989 179.412 20.96 179.671 21.0039C179.93 21.0479 180.169 21.0698 180.389 21.0698C181.146 21.0698 181.709 20.9307 182.081 20.6523C182.457 20.3691 182.645 19.9639 182.645 19.4365C182.645 19.1533 182.581 18.9067 182.454 18.6968C182.332 18.4868 182.161 18.2964 181.941 18.1255C181.722 17.9497 181.46 17.7837 181.158 17.6274C180.86 17.4663 180.538 17.2979 180.191 17.1221C179.825 16.9365 179.483 16.7485 179.166 16.5581C178.848 16.3677 178.572 16.1577 178.338 15.9282C178.104 15.6987 177.918 15.4399 177.781 15.1519C177.649 14.8589 177.583 14.5171 177.583 14.1265C177.583 13.6479 177.688 13.2329 177.898 12.8813C178.108 12.5249 178.384 12.2319 178.726 12.0024C179.068 11.7729 179.456 11.6021 179.891 11.4897C180.33 11.3774 180.777 11.3213 181.231 11.3213C182.266 11.3213 183.021 11.4458 183.494 11.6948V13.0791C182.874 12.6494 182.078 12.4346 181.106 12.4346C180.838 12.4346 180.569 12.4639 180.301 12.5225C180.032 12.5762 179.793 12.6665 179.583 12.7935C179.373 12.9204 179.202 13.084 179.07 13.2842C178.938 13.4844 178.873 13.7285 178.873 14.0166C178.873 14.2852 178.921 14.5171 179.019 14.7124C179.122 14.9077 179.271 15.0859 179.466 15.2471C179.661 15.4082 179.898 15.5645 180.176 15.7158C180.459 15.8672 180.784 16.0332 181.15 16.2139C181.526 16.3994 181.883 16.5947 182.22 16.7998C182.557 17.0049 182.852 17.2319 183.106 17.481C183.36 17.73 183.56 18.0059 183.707 18.3086C183.858 18.6113 183.934 18.958 183.934 19.3486C183.934 19.8662 183.831 20.3057 183.626 20.667C183.426 21.0234 183.152 21.314 182.806 21.5386C182.464 21.7632 182.068 21.9243 181.619 22.022C181.17 22.1245 180.696 22.1758 180.198 22.1758C180.032 22.1758 179.827 22.1611 179.583 22.1318C179.339 22.1074 179.09 22.0684 178.836 22.0146C178.582 21.9658 178.34 21.9048 178.111 21.8315C177.886 21.7534 177.706 21.668 177.569 21.5752Z" fill="#2F809C"/>
<defs>
<clipPath id="clip0_340_85">
<rect width="20" height="20" fill="white" transform="translate(6 6)"/>
</clipPath>
</defs>
</svg>
