<svg width="122" height="32" viewBox="0 0 122 32" fill="none" xmlns="http://www.w3.org/2000/svg">
<rect width="122" height="32" rx="2" fill="#7F8995" fill-opacity="0.2"/>
<g clip-path="url(#clip0_336_42)">
<path d="M24.0469 6H7.95312C6.87444 6 6 6.87444 6 7.95312V24.0469C6 25.1256 6.87444 26 7.95312 26H24.0469C25.1256 26 26 25.1256 26 24.0469V7.95312C26 6.87444 25.1256 6 24.0469 6Z" fill="#3178C6"/>
<path fill-rule="evenodd" clip-rule="evenodd" d="M18.3828 21.8984V23.8516C18.6992 24.0156 19.0859 24.1367 19.5156 24.2187C19.9453 24.3008 20.4141 24.3398 20.8828 24.3398C21.3516 24.3398 21.7813 24.2969 22.2109 24.207C22.6406 24.1172 22.9922 23.9687 23.3047 23.7773C23.6211 23.5703 23.8906 23.3086 24.0469 22.957C24.2031 22.6055 24.3242 22.2148 24.3242 21.707C24.3242 21.3516 24.2695 21.043 24.1641 20.7695C24.0586 20.4961 23.9063 20.2617 23.6953 20.0664C23.4961 19.8594 23.2656 19.6758 22.9922 19.5195C22.7188 19.3633 22.4063 19.1992 22.0547 19.0508C21.7969 18.9453 21.5859 18.8437 21.3516 18.7422C21.1484 18.6406 20.9727 18.5391 20.8438 18.4375C20.6992 18.332 20.5898 18.2226 20.5117 18.1094C20.4336 17.9922 20.3945 17.8633 20.3945 17.7187C20.3945 17.5859 20.4293 17.4648 20.5 17.3555C20.5707 17.2461 20.668 17.1562 20.793 17.0781C20.918 17 21.0742 16.9414 21.2617 16.8984C21.4453 16.8555 21.6484 16.8359 21.8867 16.8359C22.0508 16.8359 22.2227 16.848 22.3945 16.8726C22.5742 16.8973 22.7578 16.9351 22.9414 16.9859C23.125 17.0367 23.3047 17.0992 23.4883 17.1773C23.6602 17.2555 23.8203 17.3453 23.957 17.4469V15.6109C23.6602 15.4976 23.332 15.4117 22.9805 15.357C22.6289 15.3023 22.2383 15.275 21.7695 15.275C21.3008 15.275 20.8711 15.3258 20.4414 15.4234C20.0117 15.5211 19.6602 15.6773 19.3477 15.8922C19.0313 16.1031 18.8008 16.3609 18.6055 16.7125C18.4219 17.0406 18.332 17.4156 18.332 17.8844C18.332 18.4703 18.5 18.9781 18.8398 19.3687C19.1758 19.7984 19.6992 20.1109 20.3633 20.4234C20.6328 20.5328 20.8711 20.6422 21.1055 20.7476C21.3398 20.8531 21.5352 20.9625 21.6914 21.0758C21.8594 21.1891 21.9922 21.3141 22.082 21.4469C22.1797 21.5797 22.2305 21.7359 22.2305 21.9156C22.2305 22.0406 22.2 22.1578 22.1406 22.2672C22.0813 22.3766 21.9883 22.4703 21.8633 22.5484C21.7383 22.6266 21.5859 22.6891 21.3945 22.7359C21.2109 22.7789 21.0039 22.8023 20.7305 22.8023C20.3008 22.8023 19.8711 22.7281 19.4805 22.5797C19.0508 22.4312 18.6602 22.2086 18.3086 21.9156L18.3828 21.8984ZM15.1016 17.0937H17.6016V15.4922H10.6094V17.0937H13.1094V24.2422H15.1016V17.0937Z" fill="white"/>
</g>
<path d="M39.5879 12.6104H36.5557V22H35.3252V12.6104H32.3003V11.4971H39.5879V12.6104ZM48.3623 11.4971L44.8979 18.1182V22H43.6675V18.1475L40.291 11.4971H41.6899L44.041 16.2432C44.0703 16.3018 44.1558 16.5166 44.2974 16.8877H44.3193C44.3682 16.7217 44.4609 16.5068 44.5977 16.2432L47.0586 11.4971H48.3623ZM51.0576 18.0303V22H49.8271V11.4971H52.7129C53.8359 11.4971 54.7051 11.7705 55.3203 12.3174C55.9404 12.8643 56.2505 13.6357 56.2505 14.6318C56.2505 15.6279 55.9062 16.4434 55.2178 17.0781C54.5342 17.7129 53.6089 18.0303 52.4419 18.0303H51.0576ZM51.0576 12.6104V16.917H52.3467C53.1963 16.917 53.8433 16.7241 54.2876 16.3384C54.7368 15.9478 54.9614 15.3984 54.9614 14.6904C54.9614 13.3037 54.1411 12.6104 52.5005 12.6104H51.0576ZM63.8018 22H58.2354V11.4971H63.5674V12.6104H59.4658V16.104H63.2598V17.21H59.4658V20.8867H63.8018V22ZM65.3325 21.5752V20.125C65.4985 20.2715 65.6963 20.4033 65.9258 20.5205C66.1602 20.6377 66.4043 20.7378 66.6582 20.8208C66.917 20.8989 67.1758 20.96 67.4346 21.0039C67.6934 21.0479 67.9326 21.0698 68.1523 21.0698C68.9092 21.0698 69.4731 20.9307 69.8442 20.6523C70.2202 20.3691 70.4082 19.9639 70.4082 19.4365C70.4082 19.1533 70.3447 18.9067 70.2178 18.6968C70.0957 18.4868 69.9248 18.2964 69.7051 18.1255C69.4854 17.9497 69.2241 17.7837 68.9214 17.6274C68.6235 17.4663 68.3013 17.2979 67.9546 17.1221C67.5884 16.9365 67.2466 16.7485 66.9292 16.5581C66.6118 16.3677 66.3359 16.1577 66.1016 15.9282C65.8672 15.6987 65.6816 15.4399 65.5449 15.1519C65.4131 14.8589 65.3472 14.5171 65.3472 14.1265C65.3472 13.6479 65.4521 13.2329 65.6621 12.8813C65.8721 12.5249 66.1479 12.2319 66.4897 12.0024C66.8315 11.7729 67.2197 11.6021 67.6543 11.4897C68.0938 11.3774 68.5405 11.3213 68.9946 11.3213C70.0298 11.3213 70.7842 11.4458 71.2578 11.6948V13.0791C70.6377 12.6494 69.8418 12.4346 68.8701 12.4346C68.6016 12.4346 68.333 12.4639 68.0645 12.5225C67.7959 12.5762 67.5566 12.6665 67.3467 12.7935C67.1367 12.9204 66.9658 13.084 66.834 13.2842C66.7021 13.4844 66.6362 13.7285 66.6362 14.0166C66.6362 14.2852 66.6851 14.5171 66.7827 14.7124C66.8853 14.9077 67.0342 15.0859 67.2295 15.2471C67.4248 15.4082 67.6616 15.5645 67.9399 15.7158C68.2231 15.8672 68.5479 16.0332 68.9141 16.2139C69.29 16.3994 69.6465 16.5947 69.9834 16.7998C70.3203 17.0049 70.6157 17.2319 70.8696 17.481C71.1235 17.73 71.3237 18.0059 71.4702 18.3086C71.6216 18.6113 71.6973 18.958 71.6973 19.3486C71.6973 19.8662 71.5947 20.3057 71.3896 20.667C71.1895 21.0234 70.916 21.314 70.5693 21.5386C70.2275 21.7632 69.832 21.9243 69.3828 22.022C68.9336 22.1245 68.46 22.1758 67.9619 22.1758C67.7959 22.1758 67.5908 22.1611 67.3467 22.1318C67.1025 22.1074 66.8535 22.0684 66.5996 22.0146C66.3457 21.9658 66.104 21.9048 65.8745 21.8315C65.6499 21.7534 65.4692 21.668 65.3325 21.5752ZM80.9404 21.5605C80.1641 21.9707 79.1973 22.1758 78.04 22.1758C76.5459 22.1758 75.3496 21.6948 74.4512 20.7329C73.5527 19.771 73.1035 18.5088 73.1035 16.9463C73.1035 15.2666 73.6089 13.9092 74.6196 12.874C75.6304 11.8389 76.9121 11.3213 78.4648 11.3213C79.4609 11.3213 80.2861 11.4653 80.9404 11.7534V13.0645C80.1885 12.6445 79.3584 12.4346 78.4502 12.4346C77.2441 12.4346 76.2651 12.8374 75.5132 13.6431C74.7661 14.4487 74.3926 15.5254 74.3926 16.873C74.3926 18.1523 74.7417 19.1729 75.4399 19.9346C76.1431 20.6914 77.0635 21.0698 78.2012 21.0698C79.2559 21.0698 80.1689 20.8354 80.9404 20.3667V21.5605ZM90.6084 22H89.1436L87.3857 19.0557C87.2246 18.7822 87.0684 18.5503 86.917 18.3599C86.7656 18.1646 86.6094 18.0059 86.4482 17.8838C86.292 17.7617 86.1211 17.6738 85.9355 17.6201C85.7549 17.5615 85.5498 17.5322 85.3203 17.5322H84.3096V22H83.0791V11.4971H86.2139C86.6729 11.4971 87.0952 11.5557 87.481 11.6729C87.8716 11.7852 88.2085 11.9585 88.4917 12.1929C88.7798 12.4272 89.0044 12.7202 89.1655 13.0718C89.3267 13.4185 89.4072 13.8262 89.4072 14.2949C89.4072 14.6611 89.3511 14.998 89.2388 15.3057C89.1313 15.6084 88.9751 15.8794 88.77 16.1187C88.5698 16.3579 88.3257 16.563 88.0376 16.7339C87.7544 16.8999 87.4346 17.0293 87.0781 17.1221V17.1514C87.2539 17.2295 87.4053 17.3198 87.5322 17.4224C87.6641 17.52 87.7886 17.6372 87.9058 17.7739C88.0229 17.9106 88.1377 18.0669 88.25 18.2427C88.3672 18.4136 88.4966 18.6138 88.6382 18.8433L90.6084 22ZM84.3096 12.6104V16.4189H85.9795C86.2871 16.4189 86.5703 16.3726 86.8291 16.2798C87.0928 16.187 87.3198 16.0552 87.5103 15.8843C87.7007 15.7085 87.8496 15.4961 87.957 15.2471C88.0645 14.9932 88.1182 14.71 88.1182 14.3975C88.1182 13.8359 87.9351 13.3989 87.5688 13.0864C87.2075 12.769 86.6826 12.6104 85.9941 12.6104H84.3096ZM93.2891 22H92.0586V11.4971H93.2891V22ZM97.2881 18.0303V22H96.0576V11.4971H98.9434C100.066 11.4971 100.936 11.7705 101.551 12.3174C102.171 12.8643 102.481 13.6357 102.481 14.6318C102.481 15.6279 102.137 16.4434 101.448 17.0781C100.765 17.7129 99.8394 18.0303 98.6724 18.0303H97.2881ZM97.2881 12.6104V16.917H98.5771C99.4268 16.917 100.074 16.7241 100.518 16.3384C100.967 15.9478 101.192 15.3984 101.192 14.6904C101.192 13.3037 100.372 12.6104 98.731 12.6104H97.2881ZM110.677 12.6104H107.645V22H106.414V12.6104H103.389V11.4971H110.677V12.6104Z" fill="#2F809C"/>
<defs>
<clipPath id="clip0_336_42">
<rect width="20" height="20" fill="white" transform="translate(6 6)"/>
</clipPath>
</defs>
</svg>
