<svg width="67" height="32" viewBox="0 0 67 32" fill="none" xmlns="http://www.w3.org/2000/svg">
<rect width="67" height="32" rx="2" fill="#7F8995" fill-opacity="0.2"/>
<path d="M25.545 9.22536L16.51 25.3814C16.3234 25.7149 15.8442 25.7169 15.6548 25.385L6.44072 9.22688C6.23447 8.86511 6.54371 8.42697 6.9536 8.50019L15.9984 10.1169C16.056 10.1272 16.1151 10.1271 16.1728 10.1166L25.0283 8.50253C25.4368 8.42807 25.7477 8.86285 25.545 9.2253V9.22536Z" fill="url(#paint0_linear_343_120)"/>
<path d="M20.3068 6.37975L13.6206 7.68985C13.5672 7.7003 13.5187 7.72822 13.4829 7.76922C13.4471 7.81021 13.4259 7.86196 13.4227 7.91631L13.0114 14.8627C13.0018 15.0263 13.152 15.1533 13.3117 15.1164L15.1732 14.6869C15.3474 14.6467 15.5048 14.8001 15.469 14.9752L14.9159 17.6835C14.8787 17.8657 15.0498 18.0216 15.2278 17.9676L16.3776 17.6182C16.5558 17.5641 16.7271 17.7204 16.6894 17.9028L15.8105 22.1568C15.7555 22.4229 16.1094 22.568 16.257 22.3399L16.3556 22.1875L21.8039 11.3146C21.8951 11.1325 21.7379 10.9249 21.5378 10.9635L19.6217 11.3333C19.4416 11.368 19.2884 11.2004 19.3392 11.0242L20.5899 6.68878C20.6408 6.51223 20.487 6.34441 20.3068 6.37975V6.37975Z" fill="url(#paint1_linear_343_120)"/>
<path d="M41.1846 11.4971L37.2954 22H35.9404L32.1318 11.4971H33.5015L36.4092 19.8247C36.502 20.0933 36.5728 20.4033 36.6216 20.7549H36.6509C36.6899 20.4619 36.7705 20.147 36.8926 19.8101L39.8589 11.4971H41.1846ZM43.9238 22H42.6934V11.4971H43.9238V22ZM52.9033 12.6104H49.8711V22H48.6406V12.6104H45.6157V11.4971H52.9033V12.6104ZM60.125 22H54.5586V11.4971H59.8906V12.6104H55.7891V16.104H59.583V17.21H55.7891V20.8867H60.125V22Z" fill="#2F809C"/>
<defs>
<linearGradient id="paint0_linear_343_120" x1="6.21573" y1="7.92272" x2="17.4599" y2="23.1932" gradientUnits="userSpaceOnUse">
<stop stop-color="#41D1FF"/>
<stop offset="1" stop-color="#BD34FE"/>
</linearGradient>
<linearGradient id="paint1_linear_343_120" x1="15.4787" y1="6.73539" x2="17.5127" y2="20.6885" gradientUnits="userSpaceOnUse">
<stop stop-color="#FFEA83"/>
<stop offset="0.0833" stop-color="#FFDD35"/>
<stop offset="1" stop-color="#FFA800"/>
</linearGradient>
</defs>
</svg>
